<?xml version="1.0" encoding="us-ascii" standalone="no"?><svg xmlns="http://www.w3.org/2000/svg" xmlns:xlink="http://www.w3.org/1999/xlink" contentStyleType="text/css" height="417.2px" preserveAspectRatio="none" style="width:671px;height:417px;background:#FFFFFF;" version="1.1" viewBox="0 0 671 417" width="672px" zoomAndPan="magnify"><defs/><g><!--class Car--><g id="elem_Car"><rect codeLine="2" fill="#F1F1F1" height="67.2" id="Car" rx="3.5" ry="3.5" style="stroke:#181818;stroke-width:0.6999999999999998;" width="77" x="170.8" y="187.6"/><ellipse cx="191.8" cy="210" fill="#C2C2C2" rx="15.4" ry="15.4" style="stroke:#181818;stroke-width:1.3999999999999997;"/><path d="M195.6719,204.225 Q195.8906,203.9187 196.1531,203.7656 Q196.4156,203.6125 196.7219,203.6125 Q197.2469,203.6125 197.575,203.9844 Q197.9031,204.3344 197.9031,205.1875 L197.9031,207.2219 Q197.9031,208.075 197.575,208.4469 Q197.2469,208.8187 196.7219,208.8187 Q196.2406,208.8187 195.9562,208.5344 Q195.6719,208.2719 195.5187,207.55 Q195.4531,207.0469 195.1906,206.7844 Q194.7312,206.2594 193.8781,205.9531 Q193.025,205.6469 192.15,205.6469 Q191.0781,205.6469 190.1812,206.1062 Q189.3062,206.5656 188.6062,207.6156 Q187.9281,208.6656 187.9281,210.1094 L187.9281,211.6406 Q187.9281,213.3687 189.175,214.5281 Q190.4219,215.6656 192.6531,215.6656 Q193.9656,215.6656 194.8844,215.3156 Q195.4312,215.0969 196.0219,214.4844 Q196.3937,214.1125 196.5906,214.0031 Q196.8094,213.8937 197.0937,213.8937 Q197.5531,213.8937 197.9031,214.2656 Q198.275,214.6156 198.275,215.0969 Q198.275,215.5781 197.7937,216.1469 Q197.0937,216.9562 195.9781,217.4156 Q194.4687,218.05 192.6531,218.05 Q190.5312,218.05 188.8469,217.175 Q187.4687,216.475 186.5062,214.9875 Q185.5437,213.4781 185.5437,211.6844 L185.5437,210.0656 Q185.5437,208.2062 186.3969,206.6094 Q187.2719,204.9906 188.8031,204.1375 Q190.3344,203.2625 192.0625,203.2625 Q193.0906,203.2625 193.9875,203.5031 Q194.9062,203.7219 195.6719,204.225 Z " fill="#000000"/><text fill="#000000" font-family="sans-serif" font-size="19.6" lengthAdjust="spacing" textLength="32.2" x="211.4" y="218.1156">Car</text><line style="stroke:#181818;stroke-width:0.6999999999999998;" x1="172.2" x2="246.4" y1="232.4" y2="232.4"/><line style="stroke:#181818;stroke-width:0.6999999999999998;" x1="172.2" x2="246.4" y1="243.6" y2="243.6"/></g><!--class Sensor--><g id="elem_Sensor"><rect codeLine="3" fill="#F1F1F1" height="67.2" id="Sensor" rx="3.5" ry="3.5" style="stroke:#181818;stroke-width:0.6999999999999998;" width="107.8" x="9.8" y="340.2"/><ellipse cx="30.8" cy="362.6" fill="#C2C2C2" rx="15.4" ry="15.4" style="stroke:#181818;stroke-width:1.3999999999999997;"/><path d="M34.6719,356.825 Q34.8906,356.5187 35.1531,356.3656 Q35.4156,356.2125 35.7219,356.2125 Q36.2469,356.2125 36.575,356.5844 Q36.9031,356.9344 36.9031,357.7875 L36.9031,359.8219 Q36.9031,360.675 36.575,361.0469 Q36.2469,361.4187 35.7219,361.4187 Q35.2406,361.4187 34.9562,361.1344 Q34.6719,360.8719 34.5187,360.15 Q34.4531,359.6469 34.1906,359.3844 Q33.7312,358.8594 32.8781,358.5531 Q32.025,358.2469 31.15,358.2469 Q30.0781,358.2469 29.1812,358.7062 Q28.3062,359.1656 27.6062,360.2156 Q26.9281,361.2656 26.9281,362.7094 L26.9281,364.2406 Q26.9281,365.9687 28.175,367.1281 Q29.4219,368.2656 31.6531,368.2656 Q32.9656,368.2656 33.8844,367.9156 Q34.4312,367.6969 35.0219,367.0844 Q35.3937,366.7125 35.5906,366.6031 Q35.8094,366.4937 36.0937,366.4937 Q36.5531,366.4937 36.9031,366.8656 Q37.275,367.2156 37.275,367.6969 Q37.275,368.1781 36.7937,368.7469 Q36.0937,369.5562 34.9781,370.0156 Q33.4687,370.65 31.6531,370.65 Q29.5312,370.65 27.8469,369.775 Q26.4687,369.075 25.5062,367.5875 Q24.5437,366.0781 24.5437,364.2844 L24.5437,362.6656 Q24.5437,360.8062 25.3969,359.2094 Q26.2719,357.5906 27.8031,356.7375 Q29.3344,355.8625 31.0625,355.8625 Q32.0906,355.8625 32.9875,356.1031 Q33.9062,356.3219 34.6719,356.825 Z " fill="#000000"/><text fill="#000000" font-family="sans-serif" font-size="19.6" lengthAdjust="spacing" textLength="63" x="50.4" y="370.7156">Sensor</text><line style="stroke:#181818;stroke-width:0.6999999999999998;" x1="11.2" x2="116.2" y1="385" y2="385"/><line style="stroke:#181818;stroke-width:0.6999999999999998;" x1="11.2" x2="116.2" y1="396.2" y2="396.2"/></g><!--class GPS--><g id="elem_GPS"><rect codeLine="4" fill="#F1F1F1" height="67.2" id="GPS" rx="3.5" ry="3.5" style="stroke:#181818;stroke-width:0.6999999999999998;" width="85.4" x="166.6" y="340.2"/><ellipse cx="187.6" cy="362.6" fill="#C2C2C2" rx="15.4" ry="15.4" style="stroke:#181818;stroke-width:1.3999999999999997;"/><path d="M191.4719,356.825 Q191.6906,356.5187 191.9531,356.3656 Q192.2156,356.2125 192.5219,356.2125 Q193.0469,356.2125 193.375,356.5844 Q193.7031,356.9344 193.7031,357.7875 L193.7031,359.8219 Q193.7031,360.675 193.375,361.0469 Q193.0469,361.4187 192.5219,361.4187 Q192.0406,361.4187 191.7562,361.1344 Q191.4719,360.8719 191.3187,360.15 Q191.2531,359.6469 190.9906,359.3844 Q190.5312,358.8594 189.6781,358.5531 Q188.825,358.2469 187.95,358.2469 Q186.8781,358.2469 185.9812,358.7062 Q185.1062,359.1656 184.4062,360.2156 Q183.7281,361.2656 183.7281,362.7094 L183.7281,364.2406 Q183.7281,365.9687 184.975,367.1281 Q186.2219,368.2656 188.4531,368.2656 Q189.7656,368.2656 190.6844,367.9156 Q191.2312,367.6969 191.8219,367.0844 Q192.1937,366.7125 192.3906,366.6031 Q192.6094,366.4937 192.8937,366.4937 Q193.3531,366.4937 193.7031,366.8656 Q194.075,367.2156 194.075,367.6969 Q194.075,368.1781 193.5937,368.7469 Q192.8937,369.5562 191.7781,370.0156 Q190.2687,370.65 188.4531,370.65 Q186.3312,370.65 184.6469,369.775 Q183.2687,369.075 182.3062,367.5875 Q181.3437,366.0781 181.3437,364.2844 L181.3437,362.6656 Q181.3437,360.8062 182.1969,359.2094 Q183.0719,357.5906 184.6031,356.7375 Q186.1344,355.8625 187.8625,355.8625 Q188.8906,355.8625 189.7875,356.1031 Q190.7062,356.3219 191.4719,356.825 Z " fill="#000000"/><text fill="#000000" font-family="sans-serif" font-size="19.6" lengthAdjust="spacing" textLength="40.6" x="207.2" y="370.7156">GPS</text><line style="stroke:#181818;stroke-width:0.6999999999999998;" x1="168" x2="250.6" y1="385" y2="385"/><line style="stroke:#181818;stroke-width:0.6999999999999998;" x1="168" x2="250.6" y1="396.2" y2="396.2"/></g><!--class Map--><g id="elem_Map"><rect codeLine="5" fill="#F1F1F1" height="67.2" id="Map" rx="3.5" ry="3.5" style="stroke:#181818;stroke-width:0.6999999999999998;" width="82.6" x="301" y="340.2"/><ellipse cx="322" cy="362.6" fill="#C2C2C2" rx="15.4" ry="15.4" style="stroke:#181818;stroke-width:1.3999999999999997;"/><path d="M325.8719,356.825 Q326.0906,356.5187 326.3531,356.3656 Q326.6156,356.2125 326.9219,356.2125 Q327.4469,356.2125 327.775,356.5844 Q328.1031,356.9344 328.1031,357.7875 L328.1031,359.8219 Q328.1031,360.675 327.775,361.0469 Q327.4469,361.4187 326.9219,361.4187 Q326.4406,361.4187 326.1562,361.1344 Q325.8719,360.8719 325.7187,360.15 Q325.6531,359.6469 325.3906,359.3844 Q324.9312,358.8594 324.0781,358.5531 Q323.225,358.2469 322.35,358.2469 Q321.2781,358.2469 320.3812,358.7062 Q319.5062,359.1656 318.8062,360.2156 Q318.1281,361.2656 318.1281,362.7094 L318.1281,364.2406 Q318.1281,365.9687 319.375,367.1281 Q320.6219,368.2656 322.8531,368.2656 Q324.1656,368.2656 325.0844,367.9156 Q325.6312,367.6969 326.2219,367.0844 Q326.5937,366.7125 326.7906,366.6031 Q327.0094,366.4937 327.2937,366.4937 Q327.7531,366.4937 328.1031,366.8656 Q328.475,367.2156 328.475,367.6969 Q328.475,368.1781 327.9937,368.7469 Q327.2937,369.5562 326.1781,370.0156 Q324.6687,370.65 322.8531,370.65 Q320.7312,370.65 319.0469,369.775 Q317.6687,369.075 316.7062,367.5875 Q315.7437,366.0781 315.7437,364.2844 L315.7437,362.6656 Q315.7437,360.8062 316.5969,359.2094 Q317.4719,357.5906 319.0031,356.7375 Q320.5344,355.8625 322.2625,355.8625 Q323.2906,355.8625 324.1875,356.1031 Q325.1062,356.3219 325.8719,356.825 Z " fill="#000000"/><text fill="#000000" font-family="sans-serif" font-size="19.6" lengthAdjust="spacing" textLength="37.8" x="341.6" y="370.7156">Map</text><line style="stroke:#181818;stroke-width:0.6999999999999998;" x1="302.4" x2="382.2" y1="385" y2="385"/><line style="stroke:#181818;stroke-width:0.6999999999999998;" x1="302.4" x2="382.2" y1="396.2" y2="396.2"/></g><!--class Road--><g id="elem_Road"><rect codeLine="6" fill="#F1F1F1" height="67.2" id="Road" rx="3.5" ry="3.5" style="stroke:#181818;stroke-width:0.6999999999999998;" width="92.4" x="231.7" y="9.8"/><ellipse cx="252.7" cy="32.2" fill="#C2C2C2" rx="15.4" ry="15.4" style="stroke:#181818;stroke-width:1.3999999999999997;"/><path d="M256.5719,26.425 Q256.7906,26.1187 257.0531,25.9656 Q257.3156,25.8125 257.6219,25.8125 Q258.1469,25.8125 258.475,26.1844 Q258.8031,26.5344 258.8031,27.3875 L258.8031,29.4219 Q258.8031,30.275 258.475,30.6469 Q258.1469,31.0187 257.6219,31.0187 Q257.1406,31.0187 256.8562,30.7344 Q256.5719,30.4719 256.4187,29.75 Q256.3531,29.2469 256.0906,28.9844 Q255.6312,28.4594 254.7781,28.1531 Q253.925,27.8469 253.05,27.8469 Q251.9781,27.8469 251.0812,28.3062 Q250.2062,28.7656 249.5062,29.8156 Q248.8281,30.8656 248.8281,32.3094 L248.8281,33.8406 Q248.8281,35.5687 250.075,36.7281 Q251.3219,37.8656 253.5531,37.8656 Q254.8656,37.8656 255.7844,37.5156 Q256.3312,37.2969 256.9219,36.6844 Q257.2937,36.3125 257.4906,36.2031 Q257.7094,36.0937 257.9937,36.0937 Q258.4531,36.0937 258.8031,36.4656 Q259.175,36.8156 259.175,37.2969 Q259.175,37.7781 258.6937,38.3469 Q257.9937,39.1562 256.8781,39.6156 Q255.3687,40.25 253.5531,40.25 Q251.4312,40.25 249.7469,39.375 Q248.3687,38.675 247.4062,37.1875 Q246.4437,35.6781 246.4437,33.8844 L246.4437,32.2656 Q246.4437,30.4062 247.2969,28.8094 Q248.1719,27.1906 249.7031,26.3375 Q251.2344,25.4625 252.9625,25.4625 Q253.9906,25.4625 254.8875,25.7031 Q255.8062,25.9219 256.5719,26.425 Z " fill="#000000"/><text fill="#000000" font-family="sans-serif" font-size="19.6" lengthAdjust="spacing" textLength="47.6" x="272.3" y="40.3156">Road</text><line style="stroke:#181818;stroke-width:0.6999999999999998;" x1="233.1" x2="322.7" y1="54.6" y2="54.6"/><line style="stroke:#181818;stroke-width:0.6999999999999998;" x1="233.1" x2="322.7" y1="65.8" y2="65.8"/></g><!--class Route--><g id="elem_Route"><rect codeLine="7" fill="#F1F1F1" height="67.2" id="Route" rx="3.5" ry="3.5" style="stroke:#181818;stroke-width:0.6999999999999998;" width="98" x="300.3" y="187.6"/><ellipse cx="321.3" cy="210" fill="#C2C2C2" rx="15.4" ry="15.4" style="stroke:#181818;stroke-width:1.3999999999999997;"/><path d="M325.1719,204.225 Q325.3906,203.9187 325.6531,203.7656 Q325.9156,203.6125 326.2219,203.6125 Q326.7469,203.6125 327.075,203.9844 Q327.4031,204.3344 327.4031,205.1875 L327.4031,207.2219 Q327.4031,208.075 327.075,208.4469 Q326.7469,208.8187 326.2219,208.8187 Q325.7406,208.8187 325.4562,208.5344 Q325.1719,208.2719 325.0187,207.55 Q324.9531,207.0469 324.6906,206.7844 Q324.2312,206.2594 323.3781,205.9531 Q322.525,205.6469 321.65,205.6469 Q320.5781,205.6469 319.6812,206.1062 Q318.8062,206.5656 318.1062,207.6156 Q317.4281,208.6656 317.4281,210.1094 L317.4281,211.6406 Q317.4281,213.3687 318.675,214.5281 Q319.9219,215.6656 322.1531,215.6656 Q323.4656,215.6656 324.3844,215.3156 Q324.9312,215.0969 325.5219,214.4844 Q325.8937,214.1125 326.0906,214.0031 Q326.3094,213.8937 326.5937,213.8937 Q327.0531,213.8937 327.4031,214.2656 Q327.775,214.6156 327.775,215.0969 Q327.775,215.5781 327.2937,216.1469 Q326.5937,216.9562 325.4781,217.4156 Q323.9687,218.05 322.1531,218.05 Q320.0312,218.05 318.3469,217.175 Q316.9687,216.475 316.0062,214.9875 Q315.0437,213.4781 315.0437,211.6844 L315.0437,210.0656 Q315.0437,208.2062 315.8969,206.6094 Q316.7719,204.9906 318.3031,204.1375 Q319.8344,203.2625 321.5625,203.2625 Q322.5906,203.2625 323.4875,203.5031 Q324.4062,203.7219 325.1719,204.225 Z " fill="#000000"/><text fill="#000000" font-family="sans-serif" font-size="19.6" lengthAdjust="spacing" textLength="53.2" x="340.9" y="218.1156">Route</text><line style="stroke:#181818;stroke-width:0.6999999999999998;" x1="301.7" x2="396.9" y1="232.4" y2="232.4"/><line style="stroke:#181818;stroke-width:0.6999999999999998;" x1="301.7" x2="396.9" y1="243.6" y2="243.6"/></g><!--class Location--><g id="elem_Location"><rect codeLine="8" fill="#F1F1F1" height="67.2" id="Location" rx="3.5" ry="3.5" style="stroke:#181818;stroke-width:0.6999999999999998;" width="120.4" x="542.5" y="187.6"/><ellipse cx="563.5" cy="210" fill="#C2C2C2" rx="15.4" ry="15.4" style="stroke:#181818;stroke-width:1.3999999999999997;"/><path d="M567.3719,204.225 Q567.5906,203.9187 567.8531,203.7656 Q568.1156,203.6125 568.4219,203.6125 Q568.9469,203.6125 569.275,203.9844 Q569.6031,204.3344 569.6031,205.1875 L569.6031,207.2219 Q569.6031,208.075 569.275,208.4469 Q568.9469,208.8187 568.4219,208.8187 Q567.9406,208.8187 567.6562,208.5344 Q567.3719,208.2719 567.2187,207.55 Q567.1531,207.0469 566.8906,206.7844 Q566.4312,206.2594 565.5781,205.9531 Q564.725,205.6469 563.85,205.6469 Q562.7781,205.6469 561.8812,206.1062 Q561.0062,206.5656 560.3062,207.6156 Q559.6281,208.6656 559.6281,210.1094 L559.6281,211.6406 Q559.6281,213.3687 560.875,214.5281 Q562.1219,215.6656 564.3531,215.6656 Q565.6656,215.6656 566.5844,215.3156 Q567.1312,215.0969 567.7219,214.4844 Q568.0937,214.1125 568.2906,214.0031 Q568.5094,213.8937 568.7937,213.8937 Q569.2531,213.8937 569.6031,214.2656 Q569.975,214.6156 569.975,215.0969 Q569.975,215.5781 569.4937,216.1469 Q568.7937,216.9562 567.6781,217.4156 Q566.1687,218.05 564.3531,218.05 Q562.2312,218.05 560.5469,217.175 Q559.1687,216.475 558.2062,214.9875 Q557.2437,213.4781 557.2437,211.6844 L557.2437,210.0656 Q557.2437,208.2062 558.0969,206.6094 Q558.9719,204.9906 560.5031,204.1375 Q562.0344,203.2625 563.7625,203.2625 Q564.7906,203.2625 565.6875,203.5031 Q566.6062,203.7219 567.3719,204.225 Z " fill="#000000"/><text fill="#000000" font-family="sans-serif" font-size="19.6" lengthAdjust="spacing" textLength="75.6" x="583.1" y="218.1156">Location</text><line style="stroke:#181818;stroke-width:0.6999999999999998;" x1="543.9" x2="661.5" y1="232.4" y2="232.4"/><line style="stroke:#181818;stroke-width:0.6999999999999998;" x1="543.9" x2="661.5" y1="243.6" y2="243.6"/></g><!--link Car to Sensor--><g id="link_Car_Sensor"><path codeLine="10" d="M177.702,255.108 C153.286,280.224 119.644,314.846 95.228,339.962 " fill="none" id="Car-Sensor" style="stroke:#181818;stroke-width:1.3999999999999997;"/></g><!--link Car to GPS--><g id="link_Car_GPS"><path codeLine="11" d="M209.3,255.108 C209.3,280.224 209.3,314.846 209.3,339.962 " fill="none" id="Car-GPS" style="stroke:#181818;stroke-width:1.3999999999999997;"/></g><!--link Car to Map--><g id="link_Car_Map"><path codeLine="12" d="M238.154,255.108 C260.47,280.224 291.2,314.846 313.502,339.962 " fill="none" id="Car-Map" style="stroke:#181818;stroke-width:1.3999999999999997;"/></g><!--link Road to Car--><g id="link_Road_Car"><path codeLine="13" d="M231.406,77.266 C218.624,88.816 206.388,102.998 199.5,119 C190.26,140.476 193.256,166.852 198.282,187.222 " fill="none" id="Road-Car" style="stroke:#181818;stroke-width:1.3999999999999997;"/><polygon fill="#000000" points="208.5191,125.8012,200.9269,136.7393,208.8061,139.1129,208.5191,125.8012" style="stroke:#000000;stroke-width:1.3999999999999997;"/><text fill="#000000" font-family="sans-serif" font-size="18.2" lengthAdjust="spacing" textLength="71.4" x="219.1" y="140.0396">drives on</text></g><!--link Car to Route--><g id="link_Car_Route"><path codeLine="14" d="M248.122,221.2 C265.524,221.2 282.912,221.2 300.3,221.2 " fill="none" id="Car-Route" style="stroke:#181818;stroke-width:1.3999999999999997;"/></g><!--link Route to Location--><g id="link_Route_Location"><path codeLine="15" d="M398.762,221.2 C439.81,221.2 498.344,221.2 542.192,221.2 " fill="none" id="Route-Location" style="stroke:#181818;stroke-width:1.3999999999999997;"/><polygon fill="#000000" points="436.8,203.9037,424.1369,199.7892,424.1369,208.0182,436.8,203.9037" style="stroke:#000000;stroke-width:1.3999999999999997;"/><text fill="#000000" font-family="sans-serif" font-size="18.2" lengthAdjust="spacing" textLength="74.2" x="442.4" y="211.4396">connects</text></g><!--link Route to Road--><g id="link_Route_Road"><path codeLine="16" d="M336.112,187.474 C323.302,156.1 303.982,108.738 291.158,77.308 " fill="none" id="Route-Road" style="stroke:#181818;stroke-width:1.3999999999999997;"/><polygon fill="#000000" points="322.8553,126.0225,323.8301,139.3016,331.4491,136.1926,322.8553,126.0225" style="stroke:#000000;stroke-width:1.3999999999999997;"/><text fill="#000000" font-family="sans-serif" font-size="18.2" lengthAdjust="spacing" textLength="54.6" x="338.1" y="140.0396">follows</text></g><!--SRC=[FOmx3W8n34Hxdy8Ns0jGq53GW8JO4rZP828IEye72iJTIO93CtgZ6RtyS1mfKS0t80PXCVSamM99rS87m7ZA6G-Kb5RBMMOvNbQbCqMbgz3snrgiyaaC5ISCq5ouB5EahPiKksfWZSkmuGwtv9usep3kVvkwHxOsxUrgXDcQajjphYgvYVVowiCN]--></g></svg>