<?xml version="1.0" encoding="us-ascii" standalone="no"?><svg xmlns="http://www.w3.org/2000/svg" xmlns:xlink="http://www.w3.org/1999/xlink" contentStyleType="text/css" height="189px" preserveAspectRatio="none" style="width:476px;height:189px;background:#FFFFFF;" version="1.1" viewBox="0 0 476 189" width="476px" zoomAndPan="magnify"><defs/><g><!--class Company--><g id="elem_Company"><rect codeLine="1" fill="#F1F1F1" height="48" id="Company" rx="2.5" ry="2.5" style="stroke:#181818;stroke-width:0.5;" width="92" x="176.5" y="7"/><ellipse cx="191.5" cy="23" fill="#C2C2C2" rx="11" ry="11" style="stroke:#181818;stroke-width:1.0;"/><path d="M194.2656,18.875 Q194.4219,18.6563 194.6094,18.5469 Q194.7969,18.4375 195.0156,18.4375 Q195.3906,18.4375 195.625,18.7031 Q195.8594,18.9531 195.8594,19.5625 L195.8594,21.0156 Q195.8594,21.625 195.625,21.8906 Q195.3906,22.1563 195.0156,22.1563 Q194.6719,22.1563 194.4688,21.9531 Q194.2656,21.7656 194.1563,21.25 Q194.1094,20.8906 193.9219,20.7031 Q193.5938,20.3281 192.9844,20.1094 Q192.375,19.8906 191.75,19.8906 Q190.9844,19.8906 190.3438,20.2188 Q189.7188,20.5469 189.2188,21.2969 Q188.7344,22.0469 188.7344,23.0781 L188.7344,24.1719 Q188.7344,25.4063 189.625,26.2344 Q190.5156,27.0469 192.1094,27.0469 Q193.0469,27.0469 193.7031,26.7969 Q194.0938,26.6406 194.5156,26.2031 Q194.7813,25.9375 194.9219,25.8594 Q195.0781,25.7813 195.2813,25.7813 Q195.6094,25.7813 195.8594,26.0469 Q196.125,26.2969 196.125,26.6406 Q196.125,26.9844 195.7813,27.3906 Q195.2813,27.9688 194.4844,28.2969 Q193.4063,28.75 192.1094,28.75 Q190.5938,28.75 189.3906,28.125 Q188.4063,27.625 187.7188,26.5625 Q187.0313,25.4844 187.0313,24.2031 L187.0313,23.0469 Q187.0313,21.7188 187.6406,20.5781 Q188.2656,19.4219 189.3594,18.8125 Q190.4531,18.1875 191.6875,18.1875 Q192.4219,18.1875 193.0625,18.3594 Q193.7188,18.5156 194.2656,18.875 Z " fill="#000000"/><text fill="#000000" font-family="sans-serif" font-size="14" lengthAdjust="spacing" textLength="60" x="205.5" y="28.7969">Company</text><line style="stroke:#181818;stroke-width:0.5;" x1="177.5" x2="267.5" y1="39" y2="39"/><line style="stroke:#181818;stroke-width:0.5;" x1="177.5" x2="267.5" y1="47" y2="47"/></g><!--class Customer--><g id="elem_Customer"><rect codeLine="2" fill="#F1F1F1" height="48" id="Customer" rx="2.5" ry="2.5" style="stroke:#181818;stroke-width:0.5;" width="93" x="7" y="134"/><ellipse cx="22" cy="150" fill="#C2C2C2" rx="11" ry="11" style="stroke:#181818;stroke-width:1.0;"/><path d="M24.7656,145.875 Q24.9219,145.6563 25.1094,145.5469 Q25.2969,145.4375 25.5156,145.4375 Q25.8906,145.4375 26.125,145.7031 Q26.3594,145.9531 26.3594,146.5625 L26.3594,148.0156 Q26.3594,148.625 26.125,148.8906 Q25.8906,149.1563 25.5156,149.1563 Q25.1719,149.1563 24.9688,148.9531 Q24.7656,148.7656 24.6563,148.25 Q24.6094,147.8906 24.4219,147.7031 Q24.0938,147.3281 23.4844,147.1094 Q22.875,146.8906 22.25,146.8906 Q21.4844,146.8906 20.8438,147.2188 Q20.2188,147.5469 19.7188,148.2969 Q19.2344,149.0469 19.2344,150.0781 L19.2344,151.1719 Q19.2344,152.4063 20.125,153.2344 Q21.0156,154.0469 22.6094,154.0469 Q23.5469,154.0469 24.2031,153.7969 Q24.5938,153.6406 25.0156,153.2031 Q25.2813,152.9375 25.4219,152.8594 Q25.5781,152.7813 25.7813,152.7813 Q26.1094,152.7813 26.3594,153.0469 Q26.625,153.2969 26.625,153.6406 Q26.625,153.9844 26.2813,154.3906 Q25.7813,154.9688 24.9844,155.2969 Q23.9063,155.75 22.6094,155.75 Q21.0938,155.75 19.8906,155.125 Q18.9063,154.625 18.2188,153.5625 Q17.5313,152.4844 17.5313,151.2031 L17.5313,150.0469 Q17.5313,148.7188 18.1406,147.5781 Q18.7656,146.4219 19.8594,145.8125 Q20.9531,145.1875 22.1875,145.1875 Q22.9219,145.1875 23.5625,145.3594 Q24.2188,145.5156 24.7656,145.875 Z " fill="#000000"/><text fill="#000000" font-family="sans-serif" font-size="14" lengthAdjust="spacing" textLength="61" x="36" y="155.7969">Customer</text><line style="stroke:#181818;stroke-width:0.5;" x1="8" x2="99" y1="166" y2="166"/><line style="stroke:#181818;stroke-width:0.5;" x1="8" x2="99" y1="174" y2="174"/></g><!--class Product--><g id="elem_Product"><rect codeLine="3" fill="#F1F1F1" height="48" id="Product" rx="2.5" ry="2.5" style="stroke:#181818;stroke-width:0.5;" width="81" x="348" y="7"/><ellipse cx="363" cy="23" fill="#C2C2C2" rx="11" ry="11" style="stroke:#181818;stroke-width:1.0;"/><path d="M365.7656,18.875 Q365.9219,18.6563 366.1094,18.5469 Q366.2969,18.4375 366.5156,18.4375 Q366.8906,18.4375 367.125,18.7031 Q367.3594,18.9531 367.3594,19.5625 L367.3594,21.0156 Q367.3594,21.625 367.125,21.8906 Q366.8906,22.1563 366.5156,22.1563 Q366.1719,22.1563 365.9688,21.9531 Q365.7656,21.7656 365.6563,21.25 Q365.6094,20.8906 365.4219,20.7031 Q365.0938,20.3281 364.4844,20.1094 Q363.875,19.8906 363.25,19.8906 Q362.4844,19.8906 361.8438,20.2188 Q361.2188,20.5469 360.7188,21.2969 Q360.2344,22.0469 360.2344,23.0781 L360.2344,24.1719 Q360.2344,25.4063 361.125,26.2344 Q362.0156,27.0469 363.6094,27.0469 Q364.5469,27.0469 365.2031,26.7969 Q365.5938,26.6406 366.0156,26.2031 Q366.2813,25.9375 366.4219,25.8594 Q366.5781,25.7813 366.7813,25.7813 Q367.1094,25.7813 367.3594,26.0469 Q367.625,26.2969 367.625,26.6406 Q367.625,26.9844 367.2813,27.3906 Q366.7813,27.9688 365.9844,28.2969 Q364.9063,28.75 363.6094,28.75 Q362.0938,28.75 360.8906,28.125 Q359.9063,27.625 359.2188,26.5625 Q358.5313,25.4844 358.5313,24.2031 L358.5313,23.0469 Q358.5313,21.7188 359.1406,20.5781 Q359.7656,19.4219 360.8594,18.8125 Q361.9531,18.1875 363.1875,18.1875 Q363.9219,18.1875 364.5625,18.3594 Q365.2188,18.5156 365.7656,18.875 Z " fill="#000000"/><text fill="#000000" font-family="sans-serif" font-size="14" lengthAdjust="spacing" textLength="49" x="377" y="28.7969">Product</text><line style="stroke:#181818;stroke-width:0.5;" x1="349" x2="428" y1="39" y2="39"/><line style="stroke:#181818;stroke-width:0.5;" x1="349" x2="428" y1="47" y2="47"/></g><!--class Order--><g id="elem_Order"><rect codeLine="4" fill="#F1F1F1" height="48" id="Order" rx="2.5" ry="2.5" style="stroke:#181818;stroke-width:0.5;" width="69" x="188" y="134"/><ellipse cx="203" cy="150" fill="#C2C2C2" rx="11" ry="11" style="stroke:#181818;stroke-width:1.0;"/><path d="M205.7656,145.875 Q205.9219,145.6563 206.1094,145.5469 Q206.2969,145.4375 206.5156,145.4375 Q206.8906,145.4375 207.125,145.7031 Q207.3594,145.9531 207.3594,146.5625 L207.3594,148.0156 Q207.3594,148.625 207.125,148.8906 Q206.8906,149.1563 206.5156,149.1563 Q206.1719,149.1563 205.9688,148.9531 Q205.7656,148.7656 205.6563,148.25 Q205.6094,147.8906 205.4219,147.7031 Q205.0938,147.3281 204.4844,147.1094 Q203.875,146.8906 203.25,146.8906 Q202.4844,146.8906 201.8438,147.2188 Q201.2188,147.5469 200.7188,148.2969 Q200.2344,149.0469 200.2344,150.0781 L200.2344,151.1719 Q200.2344,152.4063 201.125,153.2344 Q202.0156,154.0469 203.6094,154.0469 Q204.5469,154.0469 205.2031,153.7969 Q205.5938,153.6406 206.0156,153.2031 Q206.2813,152.9375 206.4219,152.8594 Q206.5781,152.7813 206.7813,152.7813 Q207.1094,152.7813 207.3594,153.0469 Q207.625,153.2969 207.625,153.6406 Q207.625,153.9844 207.2813,154.3906 Q206.7813,154.9688 205.9844,155.2969 Q204.9063,155.75 203.6094,155.75 Q202.0938,155.75 200.8906,155.125 Q199.9063,154.625 199.2188,153.5625 Q198.5313,152.4844 198.5313,151.2031 L198.5313,150.0469 Q198.5313,148.7188 199.1406,147.5781 Q199.7656,146.4219 200.8594,145.8125 Q201.9531,145.1875 203.1875,145.1875 Q203.9219,145.1875 204.5625,145.3594 Q205.2188,145.5156 205.7656,145.875 Z " fill="#000000"/><text fill="#000000" font-family="sans-serif" font-size="14" lengthAdjust="spacing" textLength="37" x="217" y="155.7969">Order</text><line style="stroke:#181818;stroke-width:0.5;" x1="189" x2="256" y1="166" y2="166"/><line style="stroke:#181818;stroke-width:0.5;" x1="189" x2="256" y1="174" y2="174"/></g><!--class LineItem--><g id="elem_LineItem"><rect codeLine="5" fill="#F1F1F1" height="48" id="LineItem" rx="2.5" ry="2.5" style="stroke:#181818;stroke-width:0.5;" width="85" x="355" y="134"/><ellipse cx="370" cy="150" fill="#C2C2C2" rx="11" ry="11" style="stroke:#181818;stroke-width:1.0;"/><path d="M372.7656,145.875 Q372.9219,145.6563 373.1094,145.5469 Q373.2969,145.4375 373.5156,145.4375 Q373.8906,145.4375 374.125,145.7031 Q374.3594,145.9531 374.3594,146.5625 L374.3594,148.0156 Q374.3594,148.625 374.125,148.8906 Q373.8906,149.1563 373.5156,149.1563 Q373.1719,149.1563 372.9688,148.9531 Q372.7656,148.7656 372.6563,148.25 Q372.6094,147.8906 372.4219,147.7031 Q372.0938,147.3281 371.4844,147.1094 Q370.875,146.8906 370.25,146.8906 Q369.4844,146.8906 368.8438,147.2188 Q368.2188,147.5469 367.7188,148.2969 Q367.2344,149.0469 367.2344,150.0781 L367.2344,151.1719 Q367.2344,152.4063 368.125,153.2344 Q369.0156,154.0469 370.6094,154.0469 Q371.5469,154.0469 372.2031,153.7969 Q372.5938,153.6406 373.0156,153.2031 Q373.2813,152.9375 373.4219,152.8594 Q373.5781,152.7813 373.7813,152.7813 Q374.1094,152.7813 374.3594,153.0469 Q374.625,153.2969 374.625,153.6406 Q374.625,153.9844 374.2813,154.3906 Q373.7813,154.9688 372.9844,155.2969 Q371.9063,155.75 370.6094,155.75 Q369.0938,155.75 367.8906,155.125 Q366.9063,154.625 366.2188,153.5625 Q365.5313,152.4844 365.5313,151.2031 L365.5313,150.0469 Q365.5313,148.7188 366.1406,147.5781 Q366.7656,146.4219 367.8594,145.8125 Q368.9531,145.1875 370.1875,145.1875 Q370.9219,145.1875 371.5625,145.3594 Q372.2188,145.5156 372.7656,145.875 Z " fill="#000000"/><text fill="#000000" font-family="sans-serif" font-size="14" lengthAdjust="spacing" textLength="53" x="384" y="155.7969">LineItem</text><line style="stroke:#181818;stroke-width:0.5;" x1="356" x2="439" y1="166" y2="166"/><line style="stroke:#181818;stroke-width:0.5;" x1="356" x2="439" y1="174" y2="174"/></g><!--link Company to Product--><g id="link_Company_Product"><path codeLine="7" d="M268.74,31 C293.59,31 323.94,31 347.87,31 " fill="none" id="Company-Product" style="stroke:#181818;stroke-width:1.0;"/><polygon fill="#000000" points="297.25,18.6455,288.2049,15.7066,288.2049,21.5844,297.25,18.6455" style="stroke:#000000;stroke-width:1.0;"/><text fill="#000000" font-family="sans-serif" font-size="13" lengthAdjust="spacing" textLength="27" x="301.25" y="24.0283">sells</text></g><!--link Company to Customer--><g id="link_Company_Customer"><path codeLine="8" d="M191.11,55.22 C160.75,77.67 115.02,111.5 84.72,133.91 " fill="none" id="Company-Customer" style="stroke:#181818;stroke-width:1.0;"/><polygon fill="#000000" points="149.4801,97.6188,158.4998,94.6029,155.0045,89.8772,149.4801,97.6188" style="stroke:#000000;stroke-width:1.0;"/><text fill="#000000" font-family="sans-serif" font-size="13" lengthAdjust="spacing" textLength="21" x="162.5" y="100.0283">has</text></g><!--link Customer to Order--><g id="link_Customer_Order"><path codeLine="9" d="M100.13,158 C127.87,158 162.49,158 187.82,158 " fill="none" id="Customer-Order" style="stroke:#181818;stroke-width:1.0;"/><polygon fill="#000000" points="127.5,145.6455,118.4549,142.7066,118.4549,148.5844,127.5,145.6455" style="stroke:#000000;stroke-width:1.0;"/><text fill="#000000" font-family="sans-serif" font-size="13" lengthAdjust="spacing" textLength="38" x="131.5" y="151.0283">places</text></g><!--link Order to LineItem--><g id="link_Order_LineItem"><path codeLine="10" d="M257.07,158 C285.16,158 324.91,158 354.95,158 " fill="none" id="Order-LineItem" style="stroke:#181818;stroke-width:1.0;"/><polygon fill="#000000" points="284.5,145.6455,275.4549,142.7066,275.4549,148.5844,284.5,145.6455" style="stroke:#000000;stroke-width:1.0;"/><text fill="#000000" font-family="sans-serif" font-size="13" lengthAdjust="spacing" textLength="48" x="288.5" y="151.0283">includes</text></g><!--link Product to LineItem--><g id="link_Product_LineItem"><path codeLine="11" d="M390.17,55.22 C391.79,77.67 394.22,111.5 395.84,133.91 " fill="none" id="Product-LineItem" style="stroke:#181818;stroke-width:1.0;"/><polygon fill="#000000" points="399.1407,89.6584,396.8594,98.8913,402.722,98.4689,399.1407,89.6584" style="stroke:#000000;stroke-width:1.0;"/><text fill="#000000" font-family="sans-serif" font-size="13" lengthAdjust="spacing" textLength="60" x="408.5" y="100.0283">references</text></g><!--link Company to Order--><g id="link_Company_Order"><path codeLine="12" d="M222.5,55.22 C222.5,77.67 222.5,111.5 222.5,133.91 " fill="none" id="Company-Order" style="stroke:#181818;stroke-width:1.0;"/><polygon fill="#000000" points="227.5,99.6455,230.4389,90.6004,224.5611,90.6004,227.5,99.6455" style="stroke:#000000;stroke-width:1.0;"/><text fill="#000000" font-family="sans-serif" font-size="13" lengthAdjust="spacing" textLength="53" x="236.5" y="100.0283">has open</text></g><!--SRC=[LOr13W8X40Jll68-m0UCyUB9n4I_G63C4c4W0noCyUyBku1wxAvETNfQYegLXxS0y862NZXuXCm5nKTefrA2S_1HqMkaadATS8zt3gRetDEDpIHNItZ9w8Ne0f1Z3GT8w5o2qvV9QQvqKHiRXTp55KIdD3Qs5tA-L6P9ks8sEdxatu3nWOpK1CVVuo5lho4YLS4A]--></g></svg>