<?xml version="1.0" encoding="us-ascii" standalone="no"?><svg xmlns="http://www.w3.org/2000/svg" xmlns:xlink="http://www.w3.org/1999/xlink" contentStyleType="text/css" height="316px" preserveAspectRatio="none" style="width:221px;height:316px;background:#FFFFFF;" version="1.1" viewBox="0 0 221 316" width="221px" zoomAndPan="magnify"><defs/><g><!--class Instructor--><g id="elem_Instructor"><rect codeLine="2" fill="#F1F1F1" height="48" id="Instructor" rx="2.5" ry="2.5" style="stroke:#181818;stroke-width:0.5;" width="91" x="7" y="7"/><ellipse cx="22" cy="23" fill="#C2C2C2" rx="11" ry="11" style="stroke:#181818;stroke-width:1.0;"/><path d="M24.7656,18.875 Q24.9219,18.6563 25.1094,18.5469 Q25.2969,18.4375 25.5156,18.4375 Q25.8906,18.4375 26.125,18.7031 Q26.3594,18.9531 26.3594,19.5625 L26.3594,21.0156 Q26.3594,21.625 26.125,21.8906 Q25.8906,22.1563 25.5156,22.1563 Q25.1719,22.1563 24.9688,21.9531 Q24.7656,21.7656 24.6563,21.25 Q24.6094,20.8906 24.4219,20.7031 Q24.0938,20.3281 23.4844,20.1094 Q22.875,19.8906 22.25,19.8906 Q21.4844,19.8906 20.8438,20.2188 Q20.2188,20.5469 19.7188,21.2969 Q19.2344,22.0469 19.2344,23.0781 L19.2344,24.1719 Q19.2344,25.4063 20.125,26.2344 Q21.0156,27.0469 22.6094,27.0469 Q23.5469,27.0469 24.2031,26.7969 Q24.5938,26.6406 25.0156,26.2031 Q25.2813,25.9375 25.4219,25.8594 Q25.5781,25.7813 25.7813,25.7813 Q26.1094,25.7813 26.3594,26.0469 Q26.625,26.2969 26.625,26.6406 Q26.625,26.9844 26.2813,27.3906 Q25.7813,27.9688 24.9844,28.2969 Q23.9063,28.75 22.6094,28.75 Q21.0938,28.75 19.8906,28.125 Q18.9063,27.625 18.2188,26.5625 Q17.5313,25.4844 17.5313,24.2031 L17.5313,23.0469 Q17.5313,21.7188 18.1406,20.5781 Q18.7656,19.4219 19.8594,18.8125 Q20.9531,18.1875 22.1875,18.1875 Q22.9219,18.1875 23.5625,18.3594 Q24.2188,18.5156 24.7656,18.875 Z " fill="#000000"/><text fill="#000000" font-family="sans-serif" font-size="14" lengthAdjust="spacing" textLength="59" x="36" y="28.7969">Instructor</text><line style="stroke:#181818;stroke-width:0.5;" x1="8" x2="97" y1="39" y2="39"/><line style="stroke:#181818;stroke-width:0.5;" x1="8" x2="97" y1="47" y2="47"/></g><!--class Student--><g id="elem_Student"><rect codeLine="3" fill="#F1F1F1" height="48" id="Student" rx="2.5" ry="2.5" style="stroke:#181818;stroke-width:0.5;" width="81" x="133" y="7"/><ellipse cx="148" cy="23" fill="#C2C2C2" rx="11" ry="11" style="stroke:#181818;stroke-width:1.0;"/><path d="M150.7656,18.875 Q150.9219,18.6563 151.1094,18.5469 Q151.2969,18.4375 151.5156,18.4375 Q151.8906,18.4375 152.125,18.7031 Q152.3594,18.9531 152.3594,19.5625 L152.3594,21.0156 Q152.3594,21.625 152.125,21.8906 Q151.8906,22.1563 151.5156,22.1563 Q151.1719,22.1563 150.9688,21.9531 Q150.7656,21.7656 150.6563,21.25 Q150.6094,20.8906 150.4219,20.7031 Q150.0938,20.3281 149.4844,20.1094 Q148.875,19.8906 148.25,19.8906 Q147.4844,19.8906 146.8438,20.2188 Q146.2188,20.5469 145.7188,21.2969 Q145.2344,22.0469 145.2344,23.0781 L145.2344,24.1719 Q145.2344,25.4063 146.125,26.2344 Q147.0156,27.0469 148.6094,27.0469 Q149.5469,27.0469 150.2031,26.7969 Q150.5938,26.6406 151.0156,26.2031 Q151.2813,25.9375 151.4219,25.8594 Q151.5781,25.7813 151.7813,25.7813 Q152.1094,25.7813 152.3594,26.0469 Q152.625,26.2969 152.625,26.6406 Q152.625,26.9844 152.2813,27.3906 Q151.7813,27.9688 150.9844,28.2969 Q149.9063,28.75 148.6094,28.75 Q147.0938,28.75 145.8906,28.125 Q144.9063,27.625 144.2188,26.5625 Q143.5313,25.4844 143.5313,24.2031 L143.5313,23.0469 Q143.5313,21.7188 144.1406,20.5781 Q144.7656,19.4219 145.8594,18.8125 Q146.9531,18.1875 148.1875,18.1875 Q148.9219,18.1875 149.5625,18.3594 Q150.2188,18.5156 150.7656,18.875 Z " fill="#000000"/><text fill="#000000" font-family="sans-serif" font-size="14" lengthAdjust="spacing" textLength="49" x="162" y="28.7969">Student</text><line style="stroke:#181818;stroke-width:0.5;" x1="134" x2="213" y1="39" y2="39"/><line style="stroke:#181818;stroke-width:0.5;" x1="134" x2="213" y1="47" y2="47"/></g><!--class Course--><g id="elem_Course"><rect codeLine="4" fill="#F1F1F1" height="48" id="Course" rx="2.5" ry="2.5" style="stroke:#181818;stroke-width:0.5;" width="78" x="73.5" y="134"/><ellipse cx="88.5" cy="150" fill="#C2C2C2" rx="11" ry="11" style="stroke:#181818;stroke-width:1.0;"/><path d="M91.2656,145.875 Q91.4219,145.6563 91.6094,145.5469 Q91.7969,145.4375 92.0156,145.4375 Q92.3906,145.4375 92.625,145.7031 Q92.8594,145.9531 92.8594,146.5625 L92.8594,148.0156 Q92.8594,148.625 92.625,148.8906 Q92.3906,149.1563 92.0156,149.1563 Q91.6719,149.1563 91.4688,148.9531 Q91.2656,148.7656 91.1563,148.25 Q91.1094,147.8906 90.9219,147.7031 Q90.5938,147.3281 89.9844,147.1094 Q89.375,146.8906 88.75,146.8906 Q87.9844,146.8906 87.3438,147.2188 Q86.7188,147.5469 86.2188,148.2969 Q85.7344,149.0469 85.7344,150.0781 L85.7344,151.1719 Q85.7344,152.4063 86.625,153.2344 Q87.5156,154.0469 89.1094,154.0469 Q90.0469,154.0469 90.7031,153.7969 Q91.0938,153.6406 91.5156,153.2031 Q91.7813,152.9375 91.9219,152.8594 Q92.0781,152.7813 92.2813,152.7813 Q92.6094,152.7813 92.8594,153.0469 Q93.125,153.2969 93.125,153.6406 Q93.125,153.9844 92.7813,154.3906 Q92.2813,154.9688 91.4844,155.2969 Q90.4063,155.75 89.1094,155.75 Q87.5938,155.75 86.3906,155.125 Q85.4063,154.625 84.7188,153.5625 Q84.0313,152.4844 84.0313,151.2031 L84.0313,150.0469 Q84.0313,148.7188 84.6406,147.5781 Q85.2656,146.4219 86.3594,145.8125 Q87.4531,145.1875 88.6875,145.1875 Q89.4219,145.1875 90.0625,145.3594 Q90.7188,145.5156 91.2656,145.875 Z " fill="#000000"/><text fill="#000000" font-family="sans-serif" font-size="14" lengthAdjust="spacing" textLength="46" x="102.5" y="155.7969">Course</text><line style="stroke:#181818;stroke-width:0.5;" x1="74.5" x2="150.5" y1="166" y2="166"/><line style="stroke:#181818;stroke-width:0.5;" x1="74.5" x2="150.5" y1="174" y2="174"/></g><!--class Classroom--><g id="elem_Classroom"><rect codeLine="5" fill="#F1F1F1" height="48" id="Classroom" rx="2.5" ry="2.5" style="stroke:#181818;stroke-width:0.5;" width="99" x="63" y="261"/><ellipse cx="78" cy="277" fill="#C2C2C2" rx="11" ry="11" style="stroke:#181818;stroke-width:1.0;"/><path d="M80.7656,272.875 Q80.9219,272.6563 81.1094,272.5469 Q81.2969,272.4375 81.5156,272.4375 Q81.8906,272.4375 82.125,272.7031 Q82.3594,272.9531 82.3594,273.5625 L82.3594,275.0156 Q82.3594,275.625 82.125,275.8906 Q81.8906,276.1563 81.5156,276.1563 Q81.1719,276.1563 80.9688,275.9531 Q80.7656,275.7656 80.6563,275.25 Q80.6094,274.8906 80.4219,274.7031 Q80.0938,274.3281 79.4844,274.1094 Q78.875,273.8906 78.25,273.8906 Q77.4844,273.8906 76.8438,274.2188 Q76.2188,274.5469 75.7188,275.2969 Q75.2344,276.0469 75.2344,277.0781 L75.2344,278.1719 Q75.2344,279.4063 76.125,280.2344 Q77.0156,281.0469 78.6094,281.0469 Q79.5469,281.0469 80.2031,280.7969 Q80.5938,280.6406 81.0156,280.2031 Q81.2813,279.9375 81.4219,279.8594 Q81.5781,279.7813 81.7813,279.7813 Q82.1094,279.7813 82.3594,280.0469 Q82.625,280.2969 82.625,280.6406 Q82.625,280.9844 82.2813,281.3906 Q81.7813,281.9688 80.9844,282.2969 Q79.9063,282.75 78.6094,282.75 Q77.0938,282.75 75.8906,282.125 Q74.9063,281.625 74.2188,280.5625 Q73.5313,279.4844 73.5313,278.2031 L73.5313,277.0469 Q73.5313,275.7188 74.1406,274.5781 Q74.7656,273.4219 75.8594,272.8125 Q76.9531,272.1875 78.1875,272.1875 Q78.9219,272.1875 79.5625,272.3594 Q80.2188,272.5156 80.7656,272.875 Z " fill="#000000"/><text fill="#000000" font-family="sans-serif" font-size="14" lengthAdjust="spacing" textLength="67" x="92" y="282.7969">Classroom</text><line style="stroke:#181818;stroke-width:0.5;" x1="64" x2="161" y1="293" y2="293"/><line style="stroke:#181818;stroke-width:0.5;" x1="64" x2="161" y1="301" y2="301"/></g><!--link Instructor to Course--><g id="link_Instructor_Course"><path codeLine="7" d="M61.27,55.01 C66.92,69.3 74.65,87.94 82.5,104 C87.38,113.97 93.3,124.68 98.59,133.84 " fill="none" id="Instructor-Course" style="stroke:#181818;stroke-width:1.0;"/><text fill="#000000" font-family="sans-serif" font-size="13" lengthAdjust="spacing" textLength="46" x="83.5" y="100.0283">teaches</text></g><!--link Student to Course--><g id="link_Student_Course"><path codeLine="8" d="M162.17,55.22 C151.21,77.67 134.71,111.5 123.77,133.91 " fill="none" id="Student-Course" style="stroke:#181818;stroke-width:1.0;"/><text fill="#000000" font-family="sans-serif" font-size="13" lengthAdjust="spacing" textLength="32" x="147.5" y="100.0283">takes</text></g><!--link Course to Classroom--><g id="link_Course_Classroom"><path codeLine="9" d="M112.5,182.22 C112.5,204.67 112.5,238.5 112.5,260.91 " fill="none" id="Course-Classroom" style="stroke:#181818;stroke-width:1.0;"/><text fill="#000000" font-family="sans-serif" font-size="13" lengthAdjust="spacing" textLength="52" x="113.5" y="227.0283">is held in</text></g><!--SRC=[LOmn3iCm24LtJi45Se6kdJht1CX1ifKOAi1JbBlNaOYgBaZlly_thSc7Z3eUWDXLj5JJpXWs64w0ifCxliHdK48jWtUCbIMIdZhC-ORhcce7-BtXicGB7nXCfR93ZlmxsgP9lCIzDbrphBols0JW2m00]--></g></svg>