<?xml version="1.0" encoding="us-ascii" standalone="no"?><svg xmlns="http://www.w3.org/2000/svg" xmlns:xlink="http://www.w3.org/1999/xlink" contentStyleType="text/css" height="371px" preserveAspectRatio="none" style="width:335px;height:371px;background:#FFFFFF;" version="1.1" viewBox="0 0 335 371" width="335px" zoomAndPan="magnify"><defs/><g><!--class Mark--><g id="elem_Mark"><rect codeLine="2" fill="#F1F1F1" height="103.8633" id="Mark" rx="2.5" ry="2.5" style="stroke:#181818;stroke-width:0.5;" width="63" x="213.5" y="261"/><ellipse cx="228.5" cy="277" fill="#ABABAB" rx="11" ry="11" style="stroke:#181818;stroke-width:1.0;"/><path d="M227.3594,277.7969 L227.3594,280.2969 L231.6875,280.2969 L231.6875,279.375 Q231.6875,278.7656 231.9219,278.5 Q232.1719,278.2344 232.5469,278.2344 Q232.9219,278.2344 233.1563,278.5 Q233.3906,278.7656 233.3906,279.375 L233.3906,282 L225.3906,282 Q224.7656,282 224.5,281.7656 Q224.25,281.5313 224.25,281.1406 Q224.25,280.7656 224.5156,280.5313 Q224.7813,280.2969 225.3906,280.2969 L225.6563,280.2969 L225.6563,273.6406 L225.3906,273.6406 Q224.7656,273.6406 224.5,273.4063 Q224.25,273.1719 224.25,272.7813 Q224.25,272.4063 224.5,272.1719 Q224.7656,271.9375 225.3906,271.9375 L233.0156,271.9375 L233.0156,274.5313 Q233.0156,275.1406 232.7813,275.4063 Q232.5625,275.6563 232.1719,275.6563 Q231.7969,275.6563 231.5625,275.4063 Q231.3281,275.1406 231.3281,274.5313 L231.3281,273.6406 L227.3594,273.6406 L227.3594,276.0938 L228.8438,276.0938 Q228.8438,275.4375 228.9688,275.25 Q229.2344,274.8438 229.7031,274.8438 Q230.0781,274.8438 230.3125,275.1094 Q230.5469,275.3594 230.5469,275.9688 L230.5469,277.9375 Q230.5469,278.4844 230.4219,278.6719 Q230.1563,279.0625 229.7031,279.0625 Q229.2344,279.0625 228.9688,278.6563 Q228.8438,278.4688 228.8438,277.7969 L227.3594,277.7969 Z " fill="#000000"/><text fill="#000000" font-family="sans-serif" font-size="14" lengthAdjust="spacing" textLength="31" x="242.5" y="282.7969">Mark</text><line style="stroke:#181818;stroke-width:0.5;" x1="214.5" x2="275.5" y1="293" y2="293"/><text fill="#000000" font-family="sans-serif" font-size="14" lengthAdjust="spacing" textLength="39" x="219.5" y="312.1074">Empty</text><text fill="#000000" font-family="sans-serif" font-size="14" lengthAdjust="spacing" textLength="8" x="219.5" y="330.7285">X</text><text fill="#000000" font-family="sans-serif" font-size="14" lengthAdjust="spacing" textLength="11" x="219.5" y="349.3496">O</text><line style="stroke:#181818;stroke-width:0.5;" x1="214.5" x2="275.5" y1="356.8633" y2="356.8633"/></g><!--class Field--><g id="elem_Field"><rect codeLine="8" fill="#F1F1F1" height="48" id="Field" rx="2.5" ry="2.5" style="stroke:#181818;stroke-width:0.5;" width="63" x="265.5" y="134"/><ellipse cx="280.5" cy="150" fill="#C2C2C2" rx="11" ry="11" style="stroke:#181818;stroke-width:1.0;"/><path d="M283.2656,145.875 Q283.4219,145.6563 283.6094,145.5469 Q283.7969,145.4375 284.0156,145.4375 Q284.3906,145.4375 284.625,145.7031 Q284.8594,145.9531 284.8594,146.5625 L284.8594,148.0156 Q284.8594,148.625 284.625,148.8906 Q284.3906,149.1563 284.0156,149.1563 Q283.6719,149.1563 283.4688,148.9531 Q283.2656,148.7656 283.1563,148.25 Q283.1094,147.8906 282.9219,147.7031 Q282.5938,147.3281 281.9844,147.1094 Q281.375,146.8906 280.75,146.8906 Q279.9844,146.8906 279.3438,147.2188 Q278.7188,147.5469 278.2188,148.2969 Q277.7344,149.0469 277.7344,150.0781 L277.7344,151.1719 Q277.7344,152.4063 278.625,153.2344 Q279.5156,154.0469 281.1094,154.0469 Q282.0469,154.0469 282.7031,153.7969 Q283.0938,153.6406 283.5156,153.2031 Q283.7813,152.9375 283.9219,152.8594 Q284.0781,152.7813 284.2813,152.7813 Q284.6094,152.7813 284.8594,153.0469 Q285.125,153.2969 285.125,153.6406 Q285.125,153.9844 284.7813,154.3906 Q284.2813,154.9688 283.4844,155.2969 Q282.4063,155.75 281.1094,155.75 Q279.5938,155.75 278.3906,155.125 Q277.4063,154.625 276.7188,153.5625 Q276.0313,152.4844 276.0313,151.2031 L276.0313,150.0469 Q276.0313,148.7188 276.6406,147.5781 Q277.2656,146.4219 278.3594,145.8125 Q279.4531,145.1875 280.6875,145.1875 Q281.4219,145.1875 282.0625,145.3594 Q282.7188,145.5156 283.2656,145.875 Z " fill="#000000"/><text fill="#000000" font-family="sans-serif" font-size="14" lengthAdjust="spacing" textLength="31" x="294.5" y="155.7969">Field</text><line style="stroke:#181818;stroke-width:0.5;" x1="266.5" x2="327.5" y1="166" y2="166"/><line style="stroke:#181818;stroke-width:0.5;" x1="266.5" x2="327.5" y1="174" y2="174"/></g><!--class Board--><g id="elem_Board"><rect codeLine="9" fill="#F1F1F1" height="48" id="Board" rx="2.5" ry="2.5" style="stroke:#181818;stroke-width:0.5;" width="70" x="134" y="7"/><ellipse cx="149" cy="23" fill="#C2C2C2" rx="11" ry="11" style="stroke:#181818;stroke-width:1.0;"/><path d="M151.7656,18.875 Q151.9219,18.6563 152.1094,18.5469 Q152.2969,18.4375 152.5156,18.4375 Q152.8906,18.4375 153.125,18.7031 Q153.3594,18.9531 153.3594,19.5625 L153.3594,21.0156 Q153.3594,21.625 153.125,21.8906 Q152.8906,22.1563 152.5156,22.1563 Q152.1719,22.1563 151.9688,21.9531 Q151.7656,21.7656 151.6563,21.25 Q151.6094,20.8906 151.4219,20.7031 Q151.0938,20.3281 150.4844,20.1094 Q149.875,19.8906 149.25,19.8906 Q148.4844,19.8906 147.8438,20.2188 Q147.2188,20.5469 146.7188,21.2969 Q146.2344,22.0469 146.2344,23.0781 L146.2344,24.1719 Q146.2344,25.4063 147.125,26.2344 Q148.0156,27.0469 149.6094,27.0469 Q150.5469,27.0469 151.2031,26.7969 Q151.5938,26.6406 152.0156,26.2031 Q152.2813,25.9375 152.4219,25.8594 Q152.5781,25.7813 152.7813,25.7813 Q153.1094,25.7813 153.3594,26.0469 Q153.625,26.2969 153.625,26.6406 Q153.625,26.9844 153.2813,27.3906 Q152.7813,27.9688 151.9844,28.2969 Q150.9063,28.75 149.6094,28.75 Q148.0938,28.75 146.8906,28.125 Q145.9063,27.625 145.2188,26.5625 Q144.5313,25.4844 144.5313,24.2031 L144.5313,23.0469 Q144.5313,21.7188 145.1406,20.5781 Q145.7656,19.4219 146.8594,18.8125 Q147.9531,18.1875 149.1875,18.1875 Q149.9219,18.1875 150.5625,18.3594 Q151.2188,18.5156 151.7656,18.875 Z " fill="#000000"/><text fill="#000000" font-family="sans-serif" font-size="14" lengthAdjust="spacing" textLength="38" x="163" y="28.7969">Board</text><line style="stroke:#181818;stroke-width:0.5;" x1="135" x2="203" y1="39" y2="39"/><line style="stroke:#181818;stroke-width:0.5;" x1="135" x2="203" y1="47" y2="47"/></g><!--class Player--><g id="elem_Player"><rect codeLine="10" fill="#F1F1F1" height="48" id="Player" rx="2.5" ry="2.5" style="stroke:#181818;stroke-width:0.5;" width="72" x="158" y="134"/><ellipse cx="173" cy="150" fill="#C2C2C2" rx="11" ry="11" style="stroke:#181818;stroke-width:1.0;"/><path d="M175.7656,145.875 Q175.9219,145.6563 176.1094,145.5469 Q176.2969,145.4375 176.5156,145.4375 Q176.8906,145.4375 177.125,145.7031 Q177.3594,145.9531 177.3594,146.5625 L177.3594,148.0156 Q177.3594,148.625 177.125,148.8906 Q176.8906,149.1563 176.5156,149.1563 Q176.1719,149.1563 175.9688,148.9531 Q175.7656,148.7656 175.6563,148.25 Q175.6094,147.8906 175.4219,147.7031 Q175.0938,147.3281 174.4844,147.1094 Q173.875,146.8906 173.25,146.8906 Q172.4844,146.8906 171.8438,147.2188 Q171.2188,147.5469 170.7188,148.2969 Q170.2344,149.0469 170.2344,150.0781 L170.2344,151.1719 Q170.2344,152.4063 171.125,153.2344 Q172.0156,154.0469 173.6094,154.0469 Q174.5469,154.0469 175.2031,153.7969 Q175.5938,153.6406 176.0156,153.2031 Q176.2813,152.9375 176.4219,152.8594 Q176.5781,152.7813 176.7813,152.7813 Q177.1094,152.7813 177.3594,153.0469 Q177.625,153.2969 177.625,153.6406 Q177.625,153.9844 177.2813,154.3906 Q176.7813,154.9688 175.9844,155.2969 Q174.9063,155.75 173.6094,155.75 Q172.0938,155.75 170.8906,155.125 Q169.9063,154.625 169.2188,153.5625 Q168.5313,152.4844 168.5313,151.2031 L168.5313,150.0469 Q168.5313,148.7188 169.1406,147.5781 Q169.7656,146.4219 170.8594,145.8125 Q171.9531,145.1875 173.1875,145.1875 Q173.9219,145.1875 174.5625,145.3594 Q175.2188,145.5156 175.7656,145.875 Z " fill="#000000"/><text fill="#000000" font-family="sans-serif" font-size="14" lengthAdjust="spacing" textLength="40" x="187" y="155.7969">Player</text><line style="stroke:#181818;stroke-width:0.5;" x1="159" x2="229" y1="166" y2="166"/><line style="stroke:#181818;stroke-width:0.5;" x1="159" x2="229" y1="174" y2="174"/></g><!--class Game--><g id="elem_Game"><rect codeLine="11" fill="#F1F1F1" height="48" id="Game" rx="2.5" ry="2.5" style="stroke:#181818;stroke-width:0.5;" width="70" x="7" y="134"/><ellipse cx="22" cy="150" fill="#C2C2C2" rx="11" ry="11" style="stroke:#181818;stroke-width:1.0;"/><path d="M24.7656,145.875 Q24.9219,145.6563 25.1094,145.5469 Q25.2969,145.4375 25.5156,145.4375 Q25.8906,145.4375 26.125,145.7031 Q26.3594,145.9531 26.3594,146.5625 L26.3594,148.0156 Q26.3594,148.625 26.125,148.8906 Q25.8906,149.1563 25.5156,149.1563 Q25.1719,149.1563 24.9688,148.9531 Q24.7656,148.7656 24.6563,148.25 Q24.6094,147.8906 24.4219,147.7031 Q24.0938,147.3281 23.4844,147.1094 Q22.875,146.8906 22.25,146.8906 Q21.4844,146.8906 20.8438,147.2188 Q20.2188,147.5469 19.7188,148.2969 Q19.2344,149.0469 19.2344,150.0781 L19.2344,151.1719 Q19.2344,152.4063 20.125,153.2344 Q21.0156,154.0469 22.6094,154.0469 Q23.5469,154.0469 24.2031,153.7969 Q24.5938,153.6406 25.0156,153.2031 Q25.2813,152.9375 25.4219,152.8594 Q25.5781,152.7813 25.7813,152.7813 Q26.1094,152.7813 26.3594,153.0469 Q26.625,153.2969 26.625,153.6406 Q26.625,153.9844 26.2813,154.3906 Q25.7813,154.9688 24.9844,155.2969 Q23.9063,155.75 22.6094,155.75 Q21.0938,155.75 19.8906,155.125 Q18.9063,154.625 18.2188,153.5625 Q17.5313,152.4844 17.5313,151.2031 L17.5313,150.0469 Q17.5313,148.7188 18.1406,147.5781 Q18.7656,146.4219 19.8594,145.8125 Q20.9531,145.1875 22.1875,145.1875 Q22.9219,145.1875 23.5625,145.3594 Q24.2188,145.5156 24.7656,145.875 Z " fill="#000000"/><text fill="#000000" font-family="sans-serif" font-size="14" lengthAdjust="spacing" textLength="38" x="36" y="155.7969">Game</text><line style="stroke:#181818;stroke-width:0.5;" x1="8" x2="76" y1="166" y2="166"/><line style="stroke:#181818;stroke-width:0.5;" x1="8" x2="76" y1="174" y2="174"/></g><!--link Board to Field--><g id="link_Board_Field"><path codeLine="13" d="M192.78,55.22 C215.77,77.67 250.4,111.5 273.35,133.91 " fill="none" id="Board-Field" style="stroke:#181818;stroke-width:1.0;"/><polygon fill="#000000" points="249.577,98.1391,245.1596,89.7166,241.0527,93.9217,249.577,98.1391" style="stroke:#000000;stroke-width:1.0;"/><text fill="#000000" font-family="sans-serif" font-size="13" lengthAdjust="spacing" textLength="63" x="255" y="100.0283">consists of</text></g><!--link Board to Game--><g id="link_Board_Game"><path codeLine="14" d="M145.41,55.22 C122.6,77.67 88.23,111.5 65.46,133.91 " fill="none" id="Board-Game" style="stroke:#181818;stroke-width:1.0;"/><polygon fill="#000000" points="122.5635,91.1382,114.0555,95.3884,118.1786,99.5776,122.5635,91.1382" style="stroke:#000000;stroke-width:1.0;"/><text fill="#000000" font-family="sans-serif" font-size="13" lengthAdjust="spacing" textLength="56" x="128" y="100.0283">played on</text></g><!--link Game to Player--><g id="link_Game_Player"><path codeLine="15" d="M77.25,158 C101.46,158 133.49,158 157.88,158 " fill="none" id="Game-Player" style="stroke:#181818;stroke-width:1.0;"/><polygon fill="#000000" points="94.5,145.6455,103.5451,148.5844,103.5451,142.7066,94.5,145.6455" style="stroke:#000000;stroke-width:1.0;"/><text fill="#000000" font-family="sans-serif" font-size="13" lengthAdjust="spacing" textLength="31" x="108.5" y="151.0283">plays</text></g><!--link Player to Mark--><g id="link_Player_Mark"><path codeLine="16" d="M198.48,182.29 C201.46,196.52 205.79,215 211,231 C214.16,240.72 218,250.9 221.94,260.63 " fill="none" id="Player-Mark" style="stroke:#181818;stroke-width:1.0;"/><polygon fill="#000000" points="217.4344,226.4353,217.655,216.9273,212.0242,218.6136,217.4344,226.4353" style="stroke:#000000;stroke-width:1.0;"/><text fill="#000000" font-family="sans-serif" font-size="13" lengthAdjust="spacing" textLength="21" x="225" y="227.0283">has</text></g><!--link Field to Mark--><g id="link_Field_Mark"><path codeLine="17" d="M289.1,182.24 C282.03,203.05 271.4,234.31 262.36,260.94 " fill="none" id="Field-Mark" style="stroke:#181818;stroke-width:1.0;"/><polygon fill="#000000" points="281.3915,226.3797,287.084,218.7609,281.5186,216.87,281.3915,226.3797" style="stroke:#000000;stroke-width:1.0;"/><text fill="#000000" font-family="sans-serif" font-size="13" lengthAdjust="spacing" textLength="21" x="292" y="227.0283">has</text></g><!--SRC=[NKux3i8m3DrzYdU1Ng1234Z0X61ajTAWHctYA6w7gkBkf6aG4elr_7ws3Yv4Jkon4k0bYEcJU8ifpPRUH3RC7ZTEGp40Pn-dfQ1dcVVDP4PMnSNPiQlu99o- -37oObDThkmjKP7HD7i6BOm4TJefv8NZJzxSMOrRGmS9E52XcbfQDSry9NAeVDkYPyrL-u5_zWC0]--></g></svg>