<?xml version="1.0" encoding="us-ascii" standalone="no"?><svg xmlns="http://www.w3.org/2000/svg" xmlns:xlink="http://www.w3.org/1999/xlink" contentStyleType="text/css" height="264.6px" preserveAspectRatio="none" style="width:435px;height:264px;background:#FFFFFF;" version="1.1" viewBox="0 0 435 264" width="435.4px" zoomAndPan="magnify"><defs/><g><!--class Doctor--><g id="elem_Doctor"><rect codeLine="2" fill="#F1F1F1" height="67.2" id="Doctor" rx="3.5" ry="3.5" style="stroke:#181818;stroke-width:0.6999999999999998;" width="103.6" x="263.9" y="9.8"/><ellipse cx="284.9" cy="32.2" fill="#C2C2C2" rx="15.4" ry="15.4" style="stroke:#181818;stroke-width:1.3999999999999997;"/><path d="M288.7719,26.425 Q288.9906,26.1187 289.2531,25.9656 Q289.5156,25.8125 289.8219,25.8125 Q290.3469,25.8125 290.675,26.1844 Q291.0031,26.5344 291.0031,27.3875 L291.0031,29.4219 Q291.0031,30.275 290.675,30.6469 Q290.3469,31.0187 289.8219,31.0187 Q289.3406,31.0187 289.0562,30.7344 Q288.7719,30.4719 288.6187,29.75 Q288.5531,29.2469 288.2906,28.9844 Q287.8312,28.4594 286.9781,28.1531 Q286.125,27.8469 285.25,27.8469 Q284.1781,27.8469 283.2812,28.3062 Q282.4062,28.7656 281.7062,29.8156 Q281.0281,30.8656 281.0281,32.3094 L281.0281,33.8406 Q281.0281,35.5687 282.275,36.7281 Q283.5219,37.8656 285.7531,37.8656 Q287.0656,37.8656 287.9844,37.5156 Q288.5312,37.2969 289.1219,36.6844 Q289.4937,36.3125 289.6906,36.2031 Q289.9094,36.0937 290.1937,36.0937 Q290.6531,36.0937 291.0031,36.4656 Q291.375,36.8156 291.375,37.2969 Q291.375,37.7781 290.8937,38.3469 Q290.1937,39.1562 289.0781,39.6156 Q287.5687,40.25 285.7531,40.25 Q283.6312,40.25 281.9469,39.375 Q280.5687,38.675 279.6062,37.1875 Q278.6437,35.6781 278.6437,33.8844 L278.6437,32.2656 Q278.6437,30.4062 279.4969,28.8094 Q280.3719,27.1906 281.9031,26.3375 Q283.4344,25.4625 285.1625,25.4625 Q286.1906,25.4625 287.0875,25.7031 Q288.0062,25.9219 288.7719,26.425 Z " fill="#000000"/><text fill="#000000" font-family="sans-serif" font-size="19.6" lengthAdjust="spacing" textLength="58.8" x="304.5" y="40.3156">Doctor</text><line style="stroke:#181818;stroke-width:0.6999999999999998;" x1="265.3" x2="366.1" y1="54.6" y2="54.6"/><line style="stroke:#181818;stroke-width:0.6999999999999998;" x1="265.3" x2="366.1" y1="65.8" y2="65.8"/></g><!--class Patient--><g id="elem_Patient"><rect codeLine="3" fill="#F1F1F1" height="67.2" id="Patient" rx="3.5" ry="3.5" style="stroke:#181818;stroke-width:0.6999999999999998;" width="106.4" x="34.3" y="187.6"/><ellipse cx="55.3" cy="210" fill="#C2C2C2" rx="15.4" ry="15.4" style="stroke:#181818;stroke-width:1.3999999999999997;"/><path d="M59.1719,204.225 Q59.3906,203.9187 59.6531,203.7656 Q59.9156,203.6125 60.2219,203.6125 Q60.7469,203.6125 61.075,203.9844 Q61.4031,204.3344 61.4031,205.1875 L61.4031,207.2219 Q61.4031,208.075 61.075,208.4469 Q60.7469,208.8187 60.2219,208.8187 Q59.7406,208.8187 59.4562,208.5344 Q59.1719,208.2719 59.0187,207.55 Q58.9531,207.0469 58.6906,206.7844 Q58.2312,206.2594 57.3781,205.9531 Q56.525,205.6469 55.65,205.6469 Q54.5781,205.6469 53.6812,206.1062 Q52.8062,206.5656 52.1062,207.6156 Q51.4281,208.6656 51.4281,210.1094 L51.4281,211.6406 Q51.4281,213.3687 52.675,214.5281 Q53.9219,215.6656 56.1531,215.6656 Q57.4656,215.6656 58.3844,215.3156 Q58.9312,215.0969 59.5219,214.4844 Q59.8937,214.1125 60.0906,214.0031 Q60.3094,213.8937 60.5937,213.8937 Q61.0531,213.8937 61.4031,214.2656 Q61.775,214.6156 61.775,215.0969 Q61.775,215.5781 61.2937,216.1469 Q60.5937,216.9562 59.4781,217.4156 Q57.9687,218.05 56.1531,218.05 Q54.0312,218.05 52.3469,217.175 Q50.9687,216.475 50.0062,214.9875 Q49.0437,213.4781 49.0437,211.6844 L49.0437,210.0656 Q49.0437,208.2062 49.8969,206.6094 Q50.7719,204.9906 52.3031,204.1375 Q53.8344,203.2625 55.5625,203.2625 Q56.5906,203.2625 57.4875,203.5031 Q58.4062,203.7219 59.1719,204.225 Z " fill="#000000"/><text fill="#000000" font-family="sans-serif" font-size="19.6" lengthAdjust="spacing" textLength="61.6" x="74.9" y="218.1156">Patient</text><line style="stroke:#181818;stroke-width:0.6999999999999998;" x1="35.7" x2="139.3" y1="232.4" y2="232.4"/><line style="stroke:#181818;stroke-width:0.6999999999999998;" x1="35.7" x2="139.3" y1="243.6" y2="243.6"/></g><!--class Appointment--><g id="elem_Appointment"><rect codeLine="4" fill="#F1F1F1" height="67.2" id="Appointment" rx="3.5" ry="3.5" style="stroke:#181818;stroke-width:0.6999999999999998;" width="155.4" x="9.8" y="9.8"/><ellipse cx="30.8" cy="32.2" fill="#C2C2C2" rx="15.4" ry="15.4" style="stroke:#181818;stroke-width:1.3999999999999997;"/><path d="M34.6719,26.425 Q34.8906,26.1187 35.1531,25.9656 Q35.4156,25.8125 35.7219,25.8125 Q36.2469,25.8125 36.575,26.1844 Q36.9031,26.5344 36.9031,27.3875 L36.9031,29.4219 Q36.9031,30.275 36.575,30.6469 Q36.2469,31.0187 35.7219,31.0187 Q35.2406,31.0187 34.9562,30.7344 Q34.6719,30.4719 34.5187,29.75 Q34.4531,29.2469 34.1906,28.9844 Q33.7312,28.4594 32.8781,28.1531 Q32.025,27.8469 31.15,27.8469 Q30.0781,27.8469 29.1812,28.3062 Q28.3062,28.7656 27.6062,29.8156 Q26.9281,30.8656 26.9281,32.3094 L26.9281,33.8406 Q26.9281,35.5687 28.175,36.7281 Q29.4219,37.8656 31.6531,37.8656 Q32.9656,37.8656 33.8844,37.5156 Q34.4312,37.2969 35.0219,36.6844 Q35.3937,36.3125 35.5906,36.2031 Q35.8094,36.0937 36.0937,36.0937 Q36.5531,36.0937 36.9031,36.4656 Q37.275,36.8156 37.275,37.2969 Q37.275,37.7781 36.7937,38.3469 Q36.0937,39.1562 34.9781,39.6156 Q33.4687,40.25 31.6531,40.25 Q29.5312,40.25 27.8469,39.375 Q26.4687,38.675 25.5062,37.1875 Q24.5437,35.6781 24.5437,33.8844 L24.5437,32.2656 Q24.5437,30.4062 25.3969,28.8094 Q26.2719,27.1906 27.8031,26.3375 Q29.3344,25.4625 31.0625,25.4625 Q32.0906,25.4625 32.9875,25.7031 Q33.9062,25.9219 34.6719,26.425 Z " fill="#000000"/><text fill="#000000" font-family="sans-serif" font-size="19.6" lengthAdjust="spacing" textLength="110.6" x="50.4" y="40.3156">Appointment</text><line style="stroke:#181818;stroke-width:0.6999999999999998;" x1="11.2" x2="163.8" y1="54.6" y2="54.6"/><line style="stroke:#181818;stroke-width:0.6999999999999998;" x1="11.2" x2="163.8" y1="65.8" y2="65.8"/></g><!--class Prescription--><g id="elem_Prescription"><rect codeLine="5" fill="#F1F1F1" height="67.2" id="Prescription" rx="3.5" ry="3.5" style="stroke:#181818;stroke-width:0.6999999999999998;" width="149.8" x="275.8" y="187.6"/><ellipse cx="296.8" cy="210" fill="#C2C2C2" rx="15.4" ry="15.4" style="stroke:#181818;stroke-width:1.3999999999999997;"/><path d="M300.6719,204.225 Q300.8906,203.9187 301.1531,203.7656 Q301.4156,203.6125 301.7219,203.6125 Q302.2469,203.6125 302.575,203.9844 Q302.9031,204.3344 302.9031,205.1875 L302.9031,207.2219 Q302.9031,208.075 302.575,208.4469 Q302.2469,208.8187 301.7219,208.8187 Q301.2406,208.8187 300.9562,208.5344 Q300.6719,208.2719 300.5187,207.55 Q300.4531,207.0469 300.1906,206.7844 Q299.7312,206.2594 298.8781,205.9531 Q298.025,205.6469 297.15,205.6469 Q296.0781,205.6469 295.1812,206.1062 Q294.3062,206.5656 293.6062,207.6156 Q292.9281,208.6656 292.9281,210.1094 L292.9281,211.6406 Q292.9281,213.3687 294.175,214.5281 Q295.4219,215.6656 297.6531,215.6656 Q298.9656,215.6656 299.8844,215.3156 Q300.4312,215.0969 301.0219,214.4844 Q301.3937,214.1125 301.5906,214.0031 Q301.8094,213.8937 302.0937,213.8937 Q302.5531,213.8937 302.9031,214.2656 Q303.275,214.6156 303.275,215.0969 Q303.275,215.5781 302.7937,216.1469 Q302.0937,216.9562 300.9781,217.4156 Q299.4687,218.05 297.6531,218.05 Q295.5312,218.05 293.8469,217.175 Q292.4687,216.475 291.5062,214.9875 Q290.5437,213.4781 290.5437,211.6844 L290.5437,210.0656 Q290.5437,208.2062 291.3969,206.6094 Q292.2719,204.9906 293.8031,204.1375 Q295.3344,203.2625 297.0625,203.2625 Q298.0906,203.2625 298.9875,203.5031 Q299.9062,203.7219 300.6719,204.225 Z " fill="#000000"/><text fill="#000000" font-family="sans-serif" font-size="19.6" lengthAdjust="spacing" textLength="105" x="316.4" y="218.1156">Prescription</text><line style="stroke:#181818;stroke-width:0.6999999999999998;" x1="277.2" x2="424.2" y1="232.4" y2="232.4"/><line style="stroke:#181818;stroke-width:0.6999999999999998;" x1="277.2" x2="424.2" y1="243.6" y2="243.6"/></g><!--link Doctor to Patient--><g id="link_Doctor_Patient"><path codeLine="7" d="M273.308,77.308 C232.33,108.738 170.576,156.1 129.654,187.474 " fill="none" id="Doctor-Patient" style="stroke:#181818;stroke-width:1.3999999999999997;"/><polygon fill="#000000" points="217.7453,136.7635,230.2977,132.3224,225.29,125.7925,217.7453,136.7635" style="stroke:#000000;stroke-width:1.3999999999999997;"/><text fill="#000000" font-family="sans-serif" font-size="18.2" lengthAdjust="spacing" textLength="46.2" x="235.9" y="140.0396">treats</text></g><!--link Appointment to Doctor--><g id="link_Appointment_Doctor"><path codeLine="8" d="M165.396,43.4 C197.68,43.4 234.262,43.4 263.27,43.4 " fill="none" id="Appointment-Doctor" style="stroke:#181818;stroke-width:1.3999999999999997;"/><polygon fill="#000000" points="189.35,26.1037,202.0131,30.2182,202.0131,21.9892,189.35,26.1037" style="stroke:#000000;stroke-width:1.3999999999999997;"/><text fill="#000000" font-family="sans-serif" font-size="18.2" lengthAdjust="spacing" textLength="29.4" x="208.95" y="33.6396">has</text></g><!--link Doctor to Prescription--><g id="link_Doctor_Prescription"><path codeLine="9" d="M322.196,77.308 C328.482,108.738 337.96,156.1 344.232,187.474 " fill="none" id="Doctor-Prescription" style="stroke:#181818;stroke-width:1.3999999999999997;"/><polygon fill="#000000" points="343.673,139.3677,345.2238,126.1436,337.1547,127.7576,343.673,139.3677" style="stroke:#000000;stroke-width:1.3999999999999997;"/><text fill="#000000" font-family="sans-serif" font-size="18.2" lengthAdjust="spacing" textLength="47.6" x="354.9" y="140.0396">writes</text></g><!--link Patient to Appointment--><g id="link_Patient_Appointment"><path codeLine="10" d="M87.5,187.474 C87.5,156.1 87.5,108.738 87.5,77.308 " fill="none" id="Patient-Appointment" style="stroke:#181818;stroke-width:1.3999999999999997;"/><polygon fill="#000000" points="94.5,125.5037,90.3855,138.1668,98.6145,138.1668,94.5,125.5037" style="stroke:#000000;stroke-width:1.3999999999999997;"/><text fill="#000000" font-family="sans-serif" font-size="18.2" lengthAdjust="spacing" textLength="29.4" x="107.1" y="140.0396">has</text></g><!--link Patient to Prescription--><g id="link_Patient_Prescription"><path codeLine="11" d="M140.756,221.2 C179.522,221.2 232.526,221.2 275.576,221.2 " fill="none" id="Patient-Prescription" style="stroke:#181818;stroke-width:1.3999999999999997;stroke-dasharray:7.0,7.0;"/><polygon fill="#000000" points="178.85,203.9037,166.1869,199.7892,166.1869,208.0182,178.85,203.9037" style="stroke:#000000;stroke-width:1.3999999999999997;"/><text fill="#000000" font-family="sans-serif" font-size="18.2" lengthAdjust="spacing" textLength="65.8" x="184.45" y="211.4396">receives</text></g><!--SRC=[RSp13S8m30NGkwVm0c403aX83D0LhCYe5aqSEGOEYDr9eO62EDh__rTFaWiP9Rm1OjAiSJHDZ6vdXZj0dAXMF6XqjUKOo8MpBzU-59NiwVCPZ6iqAIwQ0LvJ3A7lSDjm9g-uUuSJ7psigLOQQTq8NsoBhoRESwEpuJ_GuyqlO1nPBa_Y0G00]--></g></svg>