<?xml version="1.0" encoding="us-ascii" standalone="no"?><svg xmlns="http://www.w3.org/2000/svg" xmlns:xlink="http://www.w3.org/1999/xlink" contentStyleType="text/css" height="316px" preserveAspectRatio="none" style="width:328px;height:316px;background:#FFFFFF;" version="1.1" viewBox="0 0 328 316" width="328px" zoomAndPan="magnify"><defs/><g><!--class Person--><g id="elem_Person"><rect codeLine="2" fill="#F1F1F1" height="48" id="Person" rx="2.5" ry="2.5" style="stroke:#181818;stroke-width:0.5;" width="77" x="110.5" y="7"/><ellipse cx="125.5" cy="23" fill="#C2C2C2" rx="11" ry="11" style="stroke:#181818;stroke-width:1.0;"/><path d="M128.2656,18.875 Q128.4219,18.6563 128.6094,18.5469 Q128.7969,18.4375 129.0156,18.4375 Q129.3906,18.4375 129.625,18.7031 Q129.8594,18.9531 129.8594,19.5625 L129.8594,21.0156 Q129.8594,21.625 129.625,21.8906 Q129.3906,22.1563 129.0156,22.1563 Q128.6719,22.1563 128.4688,21.9531 Q128.2656,21.7656 128.1563,21.25 Q128.1094,20.8906 127.9219,20.7031 Q127.5938,20.3281 126.9844,20.1094 Q126.375,19.8906 125.75,19.8906 Q124.9844,19.8906 124.3438,20.2188 Q123.7188,20.5469 123.2188,21.2969 Q122.7344,22.0469 122.7344,23.0781 L122.7344,24.1719 Q122.7344,25.4063 123.625,26.2344 Q124.5156,27.0469 126.1094,27.0469 Q127.0469,27.0469 127.7031,26.7969 Q128.0938,26.6406 128.5156,26.2031 Q128.7813,25.9375 128.9219,25.8594 Q129.0781,25.7813 129.2813,25.7813 Q129.6094,25.7813 129.8594,26.0469 Q130.125,26.2969 130.125,26.6406 Q130.125,26.9844 129.7813,27.3906 Q129.2813,27.9688 128.4844,28.2969 Q127.4063,28.75 126.1094,28.75 Q124.5938,28.75 123.3906,28.125 Q122.4063,27.625 121.7188,26.5625 Q121.0313,25.4844 121.0313,24.2031 L121.0313,23.0469 Q121.0313,21.7188 121.6406,20.5781 Q122.2656,19.4219 123.3594,18.8125 Q124.4531,18.1875 125.6875,18.1875 Q126.4219,18.1875 127.0625,18.3594 Q127.7188,18.5156 128.2656,18.875 Z " fill="#000000"/><text fill="#000000" font-family="sans-serif" font-size="14" lengthAdjust="spacing" textLength="45" x="139.5" y="28.7969">Person</text><line style="stroke:#181818;stroke-width:0.5;" x1="111.5" x2="186.5" y1="39" y2="39"/><line style="stroke:#181818;stroke-width:0.5;" x1="111.5" x2="186.5" y1="47" y2="47"/></g><!--class Group--><g id="elem_Group"><rect codeLine="3" fill="#F1F1F1" height="48" id="Group" rx="2.5" ry="2.5" style="stroke:#181818;stroke-width:0.5;" width="72" x="7" y="134"/><ellipse cx="22" cy="150" fill="#C2C2C2" rx="11" ry="11" style="stroke:#181818;stroke-width:1.0;"/><path d="M24.7656,145.875 Q24.9219,145.6563 25.1094,145.5469 Q25.2969,145.4375 25.5156,145.4375 Q25.8906,145.4375 26.125,145.7031 Q26.3594,145.9531 26.3594,146.5625 L26.3594,148.0156 Q26.3594,148.625 26.125,148.8906 Q25.8906,149.1563 25.5156,149.1563 Q25.1719,149.1563 24.9688,148.9531 Q24.7656,148.7656 24.6563,148.25 Q24.6094,147.8906 24.4219,147.7031 Q24.0938,147.3281 23.4844,147.1094 Q22.875,146.8906 22.25,146.8906 Q21.4844,146.8906 20.8438,147.2188 Q20.2188,147.5469 19.7188,148.2969 Q19.2344,149.0469 19.2344,150.0781 L19.2344,151.1719 Q19.2344,152.4063 20.125,153.2344 Q21.0156,154.0469 22.6094,154.0469 Q23.5469,154.0469 24.2031,153.7969 Q24.5938,153.6406 25.0156,153.2031 Q25.2813,152.9375 25.4219,152.8594 Q25.5781,152.7813 25.7813,152.7813 Q26.1094,152.7813 26.3594,153.0469 Q26.625,153.2969 26.625,153.6406 Q26.625,153.9844 26.2813,154.3906 Q25.7813,154.9688 24.9844,155.2969 Q23.9063,155.75 22.6094,155.75 Q21.0938,155.75 19.8906,155.125 Q18.9063,154.625 18.2188,153.5625 Q17.5313,152.4844 17.5313,151.2031 L17.5313,150.0469 Q17.5313,148.7188 18.1406,147.5781 Q18.7656,146.4219 19.8594,145.8125 Q20.9531,145.1875 22.1875,145.1875 Q22.9219,145.1875 23.5625,145.3594 Q24.2188,145.5156 24.7656,145.875 Z " fill="#000000"/><text fill="#000000" font-family="sans-serif" font-size="14" lengthAdjust="spacing" textLength="40" x="36" y="155.7969">Group</text><line style="stroke:#181818;stroke-width:0.5;" x1="8" x2="78" y1="166" y2="166"/><line style="stroke:#181818;stroke-width:0.5;" x1="8" x2="78" y1="174" y2="174"/></g><!--class Post--><g id="elem_Post"><rect codeLine="4" fill="#F1F1F1" height="48" id="Post" rx="2.5" ry="2.5" style="stroke:#181818;stroke-width:0.5;" width="60" x="119" y="261"/><ellipse cx="134" cy="277" fill="#C2C2C2" rx="11" ry="11" style="stroke:#181818;stroke-width:1.0;"/><path d="M136.7656,272.875 Q136.9219,272.6563 137.1094,272.5469 Q137.2969,272.4375 137.5156,272.4375 Q137.8906,272.4375 138.125,272.7031 Q138.3594,272.9531 138.3594,273.5625 L138.3594,275.0156 Q138.3594,275.625 138.125,275.8906 Q137.8906,276.1563 137.5156,276.1563 Q137.1719,276.1563 136.9688,275.9531 Q136.7656,275.7656 136.6563,275.25 Q136.6094,274.8906 136.4219,274.7031 Q136.0938,274.3281 135.4844,274.1094 Q134.875,273.8906 134.25,273.8906 Q133.4844,273.8906 132.8438,274.2188 Q132.2188,274.5469 131.7188,275.2969 Q131.2344,276.0469 131.2344,277.0781 L131.2344,278.1719 Q131.2344,279.4063 132.125,280.2344 Q133.0156,281.0469 134.6094,281.0469 Q135.5469,281.0469 136.2031,280.7969 Q136.5938,280.6406 137.0156,280.2031 Q137.2813,279.9375 137.4219,279.8594 Q137.5781,279.7813 137.7813,279.7813 Q138.1094,279.7813 138.3594,280.0469 Q138.625,280.2969 138.625,280.6406 Q138.625,280.9844 138.2813,281.3906 Q137.7813,281.9688 136.9844,282.2969 Q135.9063,282.75 134.6094,282.75 Q133.0938,282.75 131.8906,282.125 Q130.9063,281.625 130.2188,280.5625 Q129.5313,279.4844 129.5313,278.2031 L129.5313,277.0469 Q129.5313,275.7188 130.1406,274.5781 Q130.7656,273.4219 131.8594,272.8125 Q132.9531,272.1875 134.1875,272.1875 Q134.9219,272.1875 135.5625,272.3594 Q136.2188,272.5156 136.7656,272.875 Z " fill="#000000"/><text fill="#000000" font-family="sans-serif" font-size="14" lengthAdjust="spacing" textLength="28" x="148" y="282.7969">Post</text><line style="stroke:#181818;stroke-width:0.5;" x1="120" x2="178" y1="293" y2="293"/><line style="stroke:#181818;stroke-width:0.5;" x1="120" x2="178" y1="301" y2="301"/></g><!--class Comment--><g id="elem_Comment"><rect codeLine="5" fill="#F1F1F1" height="48" id="Comment" rx="2.5" ry="2.5" style="stroke:#181818;stroke-width:0.5;" width="92" x="229" y="134"/><ellipse cx="244" cy="150" fill="#C2C2C2" rx="11" ry="11" style="stroke:#181818;stroke-width:1.0;"/><path d="M246.7656,145.875 Q246.9219,145.6563 247.1094,145.5469 Q247.2969,145.4375 247.5156,145.4375 Q247.8906,145.4375 248.125,145.7031 Q248.3594,145.9531 248.3594,146.5625 L248.3594,148.0156 Q248.3594,148.625 248.125,148.8906 Q247.8906,149.1563 247.5156,149.1563 Q247.1719,149.1563 246.9688,148.9531 Q246.7656,148.7656 246.6563,148.25 Q246.6094,147.8906 246.4219,147.7031 Q246.0938,147.3281 245.4844,147.1094 Q244.875,146.8906 244.25,146.8906 Q243.4844,146.8906 242.8438,147.2188 Q242.2188,147.5469 241.7188,148.2969 Q241.2344,149.0469 241.2344,150.0781 L241.2344,151.1719 Q241.2344,152.4063 242.125,153.2344 Q243.0156,154.0469 244.6094,154.0469 Q245.5469,154.0469 246.2031,153.7969 Q246.5938,153.6406 247.0156,153.2031 Q247.2813,152.9375 247.4219,152.8594 Q247.5781,152.7813 247.7813,152.7813 Q248.1094,152.7813 248.3594,153.0469 Q248.625,153.2969 248.625,153.6406 Q248.625,153.9844 248.2813,154.3906 Q247.7813,154.9688 246.9844,155.2969 Q245.9063,155.75 244.6094,155.75 Q243.0938,155.75 241.8906,155.125 Q240.9063,154.625 240.2188,153.5625 Q239.5313,152.4844 239.5313,151.2031 L239.5313,150.0469 Q239.5313,148.7188 240.1406,147.5781 Q240.7656,146.4219 241.8594,145.8125 Q242.9531,145.1875 244.1875,145.1875 Q244.9219,145.1875 245.5625,145.3594 Q246.2188,145.5156 246.7656,145.875 Z " fill="#000000"/><text fill="#000000" font-family="sans-serif" font-size="14" lengthAdjust="spacing" textLength="60" x="258" y="155.7969">Comment</text><line style="stroke:#181818;stroke-width:0.5;" x1="230" x2="320" y1="166" y2="166"/><line style="stroke:#181818;stroke-width:0.5;" x1="230" x2="320" y1="174" y2="174"/></g><!--link Person to Group--><g id="link_Person_Group"><path codeLine="7" d="M110.49,41.34 C87.64,49.04 60.4,62.46 46,85 C36.84,99.34 36.56,118.76 38.32,133.82 " fill="none" id="Person-Group" style="stroke:#181818;stroke-width:1.0;"/><text fill="#000000" font-family="sans-serif" font-size="13" lengthAdjust="spacing" textLength="75" x="47" y="100.0283">is member of</text></g><!--link Person to Post--><g id="link_Person_Post"><path codeLine="8" d="M149,55.26 C149,103.26 149,212.84 149,260.8 " fill="none" id="Person-Post" style="stroke:#181818;stroke-width:1.0;"/><text fill="#000000" font-family="sans-serif" font-size="13" lengthAdjust="spacing" textLength="43" x="150" y="163.5283">creates</text></g><!--link Person to Comment--><g id="link_Person_Comment"><path codeLine="9" d="M172.4,55.22 C195.04,77.67 229.13,111.5 251.72,133.91 " fill="none" id="Person-Comment" style="stroke:#181818;stroke-width:1.0;"/><text fill="#000000" font-family="sans-serif" font-size="13" lengthAdjust="spacing" textLength="43" x="220" y="100.0283">creates</text></g><!--link Comment to Post--><g id="link_Comment_Post"><path codeLine="10" d="M251.6,182.22 C228.96,204.67 194.87,238.5 172.28,260.91 " fill="none" id="Comment-Post" style="stroke:#181818;stroke-width:1.0;"/><polygon fill="#000000" points="227.5496,218.1241,219.0585,222.408,223.1981,226.5808,227.5496,218.1241" style="stroke:#000000;stroke-width:1.0;"/><text fill="#000000" font-family="sans-serif" font-size="13" lengthAdjust="spacing" textLength="60" x="233" y="227.0283">belongs to</text></g><!--link Group to Post--><g id="link_Group_Post"><path codeLine="11" d="M40.33,182.28 C39.78,197.38 41.44,216.81 51,231 C66.67,254.26 96.03,268.17 118.54,275.87 " fill="none" id="Group-Post" style="stroke:#181818;stroke-width:1.0;"/><polygon fill="#000000" points="52.7938,217.8088,56.3387,226.634,60.849,222.8649,52.7938,217.8088" style="stroke:#000000;stroke-width:1.0;"/><text fill="#000000" font-family="sans-serif" font-size="13" lengthAdjust="spacing" textLength="57" x="65" y="227.0283">created in</text></g><!--SRC=[NOqn3i9030Hxls8_a0yWEWfQld0v34J4TcHVAiJV2RgBED6jTtRNyPnqIPu4BmB4rFB3JHZ5LwOtKPvJ12xiOTgEizkwxC2YD7ao4TP2LCCOXfh40LD0M4PssAt3t_96itCg71reKntRdLzhvDdq7YY68zL7_vDNJBh13m00]--></g></svg>