<?xml version="1.0" encoding="us-ascii" standalone="no"?><svg xmlns="http://www.w3.org/2000/svg" xmlns:xlink="http://www.w3.org/1999/xlink" contentStyleType="text/css" height="417.2px" preserveAspectRatio="none" style="width:522px;height:417px;background:#FFFFFF;" version="1.1" viewBox="0 0 522 417" width="522.2px" zoomAndPan="magnify"><defs/><g><!--class Account--><g id="elem_Account"><rect codeLine="2" fill="#F1F1F1" height="67.2" id="Account" rx="3.5" ry="3.5" style="stroke:#181818;stroke-width:0.6999999999999998;" width="116.2" x="239.4" y="187.6"/><ellipse cx="260.4" cy="210" fill="#C2C2C2" rx="15.4" ry="15.4" style="stroke:#181818;stroke-width:1.3999999999999997;"/><path d="M264.2719,204.225 Q264.4906,203.9187 264.7531,203.7656 Q265.0156,203.6125 265.3219,203.6125 Q265.8469,203.6125 266.175,203.9844 Q266.5031,204.3344 266.5031,205.1875 L266.5031,207.2219 Q266.5031,208.075 266.175,208.4469 Q265.8469,208.8187 265.3219,208.8187 Q264.8406,208.8187 264.5562,208.5344 Q264.2719,208.2719 264.1187,207.55 Q264.0531,207.0469 263.7906,206.7844 Q263.3312,206.2594 262.4781,205.9531 Q261.625,205.6469 260.75,205.6469 Q259.6781,205.6469 258.7812,206.1062 Q257.9062,206.5656 257.2062,207.6156 Q256.5281,208.6656 256.5281,210.1094 L256.5281,211.6406 Q256.5281,213.3687 257.775,214.5281 Q259.0219,215.6656 261.2531,215.6656 Q262.5656,215.6656 263.4844,215.3156 Q264.0312,215.0969 264.6219,214.4844 Q264.9937,214.1125 265.1906,214.0031 Q265.4094,213.8937 265.6937,213.8937 Q266.1531,213.8937 266.5031,214.2656 Q266.875,214.6156 266.875,215.0969 Q266.875,215.5781 266.3937,216.1469 Q265.6937,216.9562 264.5781,217.4156 Q263.0687,218.05 261.2531,218.05 Q259.1312,218.05 257.4469,217.175 Q256.0687,216.475 255.1062,214.9875 Q254.1437,213.4781 254.1437,211.6844 L254.1437,210.0656 Q254.1437,208.2062 254.9969,206.6094 Q255.8719,204.9906 257.4031,204.1375 Q258.9344,203.2625 260.6625,203.2625 Q261.6906,203.2625 262.5875,203.5031 Q263.5062,203.7219 264.2719,204.225 Z " fill="#000000"/><text fill="#000000" font-family="sans-serif" font-size="19.6" lengthAdjust="spacing" textLength="71.4" x="280" y="218.1156">Account</text><line style="stroke:#181818;stroke-width:0.6999999999999998;" x1="240.8" x2="354.2" y1="232.4" y2="232.4"/><line style="stroke:#181818;stroke-width:0.6999999999999998;" x1="240.8" x2="354.2" y1="243.6" y2="243.6"/></g><!--class Transaction--><g id="elem_Transaction"><rect codeLine="3" fill="#F1F1F1" height="67.2" id="Transaction" rx="3.5" ry="3.5" style="stroke:#181818;stroke-width:0.6999999999999998;" width="149.8" x="110.6" y="9.8"/><ellipse cx="131.6" cy="32.2" fill="#C2C2C2" rx="15.4" ry="15.4" style="stroke:#181818;stroke-width:1.3999999999999997;"/><path d="M135.4719,26.425 Q135.6906,26.1187 135.9531,25.9656 Q136.2156,25.8125 136.5219,25.8125 Q137.0469,25.8125 137.375,26.1844 Q137.7031,26.5344 137.7031,27.3875 L137.7031,29.4219 Q137.7031,30.275 137.375,30.6469 Q137.0469,31.0187 136.5219,31.0187 Q136.0406,31.0187 135.7562,30.7344 Q135.4719,30.4719 135.3187,29.75 Q135.2531,29.2469 134.9906,28.9844 Q134.5312,28.4594 133.6781,28.1531 Q132.825,27.8469 131.95,27.8469 Q130.8781,27.8469 129.9812,28.3062 Q129.1062,28.7656 128.4062,29.8156 Q127.7281,30.8656 127.7281,32.3094 L127.7281,33.8406 Q127.7281,35.5687 128.975,36.7281 Q130.2219,37.8656 132.4531,37.8656 Q133.7656,37.8656 134.6844,37.5156 Q135.2312,37.2969 135.8219,36.6844 Q136.1937,36.3125 136.3906,36.2031 Q136.6094,36.0937 136.8937,36.0937 Q137.3531,36.0937 137.7031,36.4656 Q138.075,36.8156 138.075,37.2969 Q138.075,37.7781 137.5937,38.3469 Q136.8937,39.1562 135.7781,39.6156 Q134.2687,40.25 132.4531,40.25 Q130.3312,40.25 128.6469,39.375 Q127.2687,38.675 126.3062,37.1875 Q125.3437,35.6781 125.3437,33.8844 L125.3437,32.2656 Q125.3437,30.4062 126.1969,28.8094 Q127.0719,27.1906 128.6031,26.3375 Q130.1344,25.4625 131.8625,25.4625 Q132.8906,25.4625 133.7875,25.7031 Q134.7062,25.9219 135.4719,26.425 Z " fill="#000000"/><text fill="#000000" font-family="sans-serif" font-size="19.6" lengthAdjust="spacing" textLength="105" x="151.2" y="40.3156">Transaction</text><line style="stroke:#181818;stroke-width:0.6999999999999998;" x1="112" x2="259" y1="54.6" y2="54.6"/><line style="stroke:#181818;stroke-width:0.6999999999999998;" x1="112" x2="259" y1="65.8" y2="65.8"/></g><!--class Customer--><g id="elem_Customer"><rect codeLine="4" fill="#F1F1F1" height="67.2" id="Customer" rx="3.5" ry="3.5" style="stroke:#181818;stroke-width:0.6999999999999998;" width="130.2" x="9.8" y="187.6"/><ellipse cx="30.8" cy="210" fill="#C2C2C2" rx="15.4" ry="15.4" style="stroke:#181818;stroke-width:1.3999999999999997;"/><path d="M34.6719,204.225 Q34.8906,203.9187 35.1531,203.7656 Q35.4156,203.6125 35.7219,203.6125 Q36.2469,203.6125 36.575,203.9844 Q36.9031,204.3344 36.9031,205.1875 L36.9031,207.2219 Q36.9031,208.075 36.575,208.4469 Q36.2469,208.8187 35.7219,208.8187 Q35.2406,208.8187 34.9562,208.5344 Q34.6719,208.2719 34.5187,207.55 Q34.4531,207.0469 34.1906,206.7844 Q33.7312,206.2594 32.8781,205.9531 Q32.025,205.6469 31.15,205.6469 Q30.0781,205.6469 29.1812,206.1062 Q28.3062,206.5656 27.6062,207.6156 Q26.9281,208.6656 26.9281,210.1094 L26.9281,211.6406 Q26.9281,213.3687 28.175,214.5281 Q29.4219,215.6656 31.6531,215.6656 Q32.9656,215.6656 33.8844,215.3156 Q34.4312,215.0969 35.0219,214.4844 Q35.3937,214.1125 35.5906,214.0031 Q35.8094,213.8937 36.0937,213.8937 Q36.5531,213.8937 36.9031,214.2656 Q37.275,214.6156 37.275,215.0969 Q37.275,215.5781 36.7937,216.1469 Q36.0937,216.9562 34.9781,217.4156 Q33.4687,218.05 31.6531,218.05 Q29.5312,218.05 27.8469,217.175 Q26.4687,216.475 25.5062,214.9875 Q24.5437,213.4781 24.5437,211.6844 L24.5437,210.0656 Q24.5437,208.2062 25.3969,206.6094 Q26.2719,204.9906 27.8031,204.1375 Q29.3344,203.2625 31.0625,203.2625 Q32.0906,203.2625 32.9875,203.5031 Q33.9062,203.7219 34.6719,204.225 Z " fill="#000000"/><text fill="#000000" font-family="sans-serif" font-size="19.6" lengthAdjust="spacing" textLength="85.4" x="50.4" y="218.1156">Customer</text><line style="stroke:#181818;stroke-width:0.6999999999999998;" x1="11.2" x2="138.6" y1="232.4" y2="232.4"/><line style="stroke:#181818;stroke-width:0.6999999999999998;" x1="11.2" x2="138.6" y1="243.6" y2="243.6"/></g><!--class CheckingAccount--><g id="elem_CheckingAccount"><rect codeLine="5" fill="#F1F1F1" height="67.2" id="CheckingAccount" rx="3.5" ry="3.5" style="stroke:#181818;stroke-width:0.6999999999999998;" width="198.8" x="77.7" y="340.2"/><ellipse cx="98.7" cy="362.6" fill="#C2C2C2" rx="15.4" ry="15.4" style="stroke:#181818;stroke-width:1.3999999999999997;"/><path d="M102.5719,356.825 Q102.7906,356.5187 103.0531,356.3656 Q103.3156,356.2125 103.6219,356.2125 Q104.1469,356.2125 104.475,356.5844 Q104.8031,356.9344 104.8031,357.7875 L104.8031,359.8219 Q104.8031,360.675 104.475,361.0469 Q104.1469,361.4187 103.6219,361.4187 Q103.1406,361.4187 102.8562,361.1344 Q102.5719,360.8719 102.4187,360.15 Q102.3531,359.6469 102.0906,359.3844 Q101.6312,358.8594 100.7781,358.5531 Q99.925,358.2469 99.05,358.2469 Q97.9781,358.2469 97.0812,358.7062 Q96.2062,359.1656 95.5062,360.2156 Q94.8281,361.2656 94.8281,362.7094 L94.8281,364.2406 Q94.8281,365.9687 96.075,367.1281 Q97.3219,368.2656 99.5531,368.2656 Q100.8656,368.2656 101.7844,367.9156 Q102.3312,367.6969 102.9219,367.0844 Q103.2937,366.7125 103.4906,366.6031 Q103.7094,366.4937 103.9937,366.4937 Q104.4531,366.4937 104.8031,366.8656 Q105.175,367.2156 105.175,367.6969 Q105.175,368.1781 104.6937,368.7469 Q103.9937,369.5562 102.8781,370.0156 Q101.3687,370.65 99.5531,370.65 Q97.4312,370.65 95.7469,369.775 Q94.3687,369.075 93.4062,367.5875 Q92.4437,366.0781 92.4437,364.2844 L92.4437,362.6656 Q92.4437,360.8062 93.2969,359.2094 Q94.1719,357.5906 95.7031,356.7375 Q97.2344,355.8625 98.9625,355.8625 Q99.9906,355.8625 100.8875,356.1031 Q101.8062,356.3219 102.5719,356.825 Z " fill="#000000"/><text fill="#000000" font-family="sans-serif" font-size="19.6" lengthAdjust="spacing" textLength="154" x="118.3" y="370.7156">CheckingAccount</text><line style="stroke:#181818;stroke-width:0.6999999999999998;" x1="79.1" x2="275.1" y1="385" y2="385"/><line style="stroke:#181818;stroke-width:0.6999999999999998;" x1="79.1" x2="275.1" y1="396.2" y2="396.2"/></g><!--class SavingsAccount--><g id="elem_SavingsAccount"><rect codeLine="6" fill="#F1F1F1" height="67.2" id="SavingsAccount" rx="3.5" ry="3.5" style="stroke:#181818;stroke-width:0.6999999999999998;" width="186.2" x="326.2" y="340.2"/><ellipse cx="347.2" cy="362.6" fill="#C2C2C2" rx="15.4" ry="15.4" style="stroke:#181818;stroke-width:1.3999999999999997;"/><path d="M351.0719,356.825 Q351.2906,356.5187 351.5531,356.3656 Q351.8156,356.2125 352.1219,356.2125 Q352.6469,356.2125 352.975,356.5844 Q353.3031,356.9344 353.3031,357.7875 L353.3031,359.8219 Q353.3031,360.675 352.975,361.0469 Q352.6469,361.4187 352.1219,361.4187 Q351.6406,361.4187 351.3562,361.1344 Q351.0719,360.8719 350.9187,360.15 Q350.8531,359.6469 350.5906,359.3844 Q350.1312,358.8594 349.2781,358.5531 Q348.425,358.2469 347.55,358.2469 Q346.4781,358.2469 345.5812,358.7062 Q344.7062,359.1656 344.0062,360.2156 Q343.3281,361.2656 343.3281,362.7094 L343.3281,364.2406 Q343.3281,365.9687 344.575,367.1281 Q345.8219,368.2656 348.0531,368.2656 Q349.3656,368.2656 350.2844,367.9156 Q350.8312,367.6969 351.4219,367.0844 Q351.7937,366.7125 351.9906,366.6031 Q352.2094,366.4937 352.4937,366.4937 Q352.9531,366.4937 353.3031,366.8656 Q353.675,367.2156 353.675,367.6969 Q353.675,368.1781 353.1937,368.7469 Q352.4937,369.5562 351.3781,370.0156 Q349.8687,370.65 348.0531,370.65 Q345.9312,370.65 344.2469,369.775 Q342.8687,369.075 341.9062,367.5875 Q340.9437,366.0781 340.9437,364.2844 L340.9437,362.6656 Q340.9437,360.8062 341.7969,359.2094 Q342.6719,357.5906 344.2031,356.7375 Q345.7344,355.8625 347.4625,355.8625 Q348.4906,355.8625 349.3875,356.1031 Q350.3062,356.3219 351.0719,356.825 Z " fill="#000000"/><text fill="#000000" font-family="sans-serif" font-size="19.6" lengthAdjust="spacing" textLength="141.4" x="366.8" y="370.7156">SavingsAccount</text><line style="stroke:#181818;stroke-width:0.6999999999999998;" x1="327.6" x2="511" y1="385" y2="385"/><line style="stroke:#181818;stroke-width:0.6999999999999998;" x1="327.6" x2="511" y1="396.2" y2="396.2"/></g><!--link Customer to Account--><g id="link_Customer_Account"><path codeLine="8" d="M140.49,221.2 C171.78,221.2 208.908,221.2 239.19,221.2 " fill="none" id="Customer-Account" style="stroke:#181818;stroke-width:1.3999999999999997;"/><polygon fill="#000000" points="178.5,203.9037,165.8369,199.7892,165.8369,208.0182,178.5,203.9037" style="stroke:#000000;stroke-width:1.3999999999999997;"/><text fill="#000000" font-family="sans-serif" font-size="18.2" lengthAdjust="spacing" textLength="29.4" x="184.1" y="211.4396">has</text></g><!--link Account to Transaction--><g id="link_Account_Transaction"><path codeLine="9" d="M276.808,187.474 C256.732,156.1 226.422,108.738 206.304,77.308 " fill="none" id="Account-Transaction" style="stroke:#181818;stroke-width:1.3999999999999997;"/><polygon fill="#000000" points="251.7267,126.6078,255.0871,139.4915,262.0182,135.0558,251.7267,126.6078" style="stroke:#000000;stroke-width:1.3999999999999997;"/><text fill="#000000" font-family="sans-serif" font-size="18.2" lengthAdjust="spacing" textLength="113.4" x="268.1" y="140.0396">participates in</text></g><!--link Transaction to Customer--><g id="link_Transaction_Customer"><path codeLine="10" d="M161.182,77.168 C151.844,89.992 141.274,104.986 132.3,119 C117.964,141.386 103.152,167.482 92.162,187.516 " fill="none" id="Transaction-Customer" style="stroke:#181818;stroke-width:1.3999999999999997;stroke-dasharray:7.0,7.0;"/><polygon fill="#000000" points="143.012,126.569,132.8086,135.1231,139.7853,139.4869,143.012,126.569" style="stroke:#000000;stroke-width:1.3999999999999997;"/><text fill="#000000" font-family="sans-serif" font-size="18.2" lengthAdjust="spacing" textLength="63" x="151.9" y="140.0396">initiates</text></g><!--reverse link Account to CheckingAccount--><g id="link_Account_CheckingAccount"><path codeLine="11" d="M255.5817,274.7442 C235.3797,299.8602 223.356,314.846 203.168,339.962 " fill="none" id="Account-backto-CheckingAccount" style="stroke:#181818;stroke-width:1.3999999999999997;"/><polygon fill="none" points="271.376,255.108,249.0363,269.4794,262.1271,280.009,271.376,255.108" style="stroke:#181818;stroke-width:1.3999999999999997;"/></g><!--reverse link Account to SavingsAccount--><g id="link_Account_SavingsAccount"><path codeLine="12" d="M339.832,274.6587 C360.258,299.7747 372.512,314.846 392.924,339.962 " fill="none" id="Account-backto-SavingsAccount" style="stroke:#181818;stroke-width:1.3999999999999997;"/><polygon fill="none" points="323.932,255.108,333.315,279.9587,346.3489,269.3588,323.932,255.108" style="stroke:#181818;stroke-width:1.3999999999999997;"/></g><!--SRC=[POvH2W8n34J_UufSe7i04K4yWbuWX6A3DYrDwezwTujirLq_PpBpCdfXALWnmTq1f2oPOiqfWDKMtDCvkg8gx8bo4vlLgQ8ead6MsJaqjTwgGyP07NnUrevuwvuEquqI-C673KHKsBcX_U-lVkrJZOaBMb1WwSaFP6fbMgLPsFWT_HAt3-__zYsEgval]--></g></svg>