<?xml version="1.0" encoding="us-ascii" standalone="no"?><svg xmlns="http://www.w3.org/2000/svg" xmlns:xlink="http://www.w3.org/1999/xlink" contentStyleType="text/css" height="316px" preserveAspectRatio="none" style="width:479px;height:316px;background:#FFFFFF;" version="1.1" viewBox="0 0 479 316" width="479px" zoomAndPan="magnify"><defs/><g><!--class Game--><g id="elem_Game"><rect codeLine="2" fill="#F1F1F1" height="48" id="Game" rx="2.5" ry="2.5" style="stroke:#181818;stroke-width:0.5;" width="70" x="224.5" y="7"/><ellipse cx="239.5" cy="23" fill="#C2C2C2" rx="11" ry="11" style="stroke:#181818;stroke-width:1.0;"/><path d="M242.2656,18.875 Q242.4219,18.6563 242.6094,18.5469 Q242.7969,18.4375 243.0156,18.4375 Q243.3906,18.4375 243.625,18.7031 Q243.8594,18.9531 243.8594,19.5625 L243.8594,21.0156 Q243.8594,21.625 243.625,21.8906 Q243.3906,22.1563 243.0156,22.1563 Q242.6719,22.1563 242.4688,21.9531 Q242.2656,21.7656 242.1563,21.25 Q242.1094,20.8906 241.9219,20.7031 Q241.5938,20.3281 240.9844,20.1094 Q240.375,19.8906 239.75,19.8906 Q238.9844,19.8906 238.3438,20.2188 Q237.7188,20.5469 237.2188,21.2969 Q236.7344,22.0469 236.7344,23.0781 L236.7344,24.1719 Q236.7344,25.4063 237.625,26.2344 Q238.5156,27.0469 240.1094,27.0469 Q241.0469,27.0469 241.7031,26.7969 Q242.0938,26.6406 242.5156,26.2031 Q242.7813,25.9375 242.9219,25.8594 Q243.0781,25.7813 243.2813,25.7813 Q243.6094,25.7813 243.8594,26.0469 Q244.125,26.2969 244.125,26.6406 Q244.125,26.9844 243.7813,27.3906 Q243.2813,27.9688 242.4844,28.2969 Q241.4063,28.75 240.1094,28.75 Q238.5938,28.75 237.3906,28.125 Q236.4063,27.625 235.7188,26.5625 Q235.0313,25.4844 235.0313,24.2031 L235.0313,23.0469 Q235.0313,21.7188 235.6406,20.5781 Q236.2656,19.4219 237.3594,18.8125 Q238.4531,18.1875 239.6875,18.1875 Q240.4219,18.1875 241.0625,18.3594 Q241.7188,18.5156 242.2656,18.875 Z " fill="#000000"/><text fill="#000000" font-family="sans-serif" font-size="14" lengthAdjust="spacing" textLength="38" x="253.5" y="28.7969">Game</text><line style="stroke:#181818;stroke-width:0.5;" x1="225.5" x2="293.5" y1="39" y2="39"/><line style="stroke:#181818;stroke-width:0.5;" x1="225.5" x2="293.5" y1="47" y2="47"/></g><!--class Player--><g id="elem_Player"><rect codeLine="3" fill="#F1F1F1" height="48" id="Player" rx="2.5" ry="2.5" style="stroke:#181818;stroke-width:0.5;" width="72" x="223.5" y="134"/><ellipse cx="238.5" cy="150" fill="#C2C2C2" rx="11" ry="11" style="stroke:#181818;stroke-width:1.0;"/><path d="M241.2656,145.875 Q241.4219,145.6563 241.6094,145.5469 Q241.7969,145.4375 242.0156,145.4375 Q242.3906,145.4375 242.625,145.7031 Q242.8594,145.9531 242.8594,146.5625 L242.8594,148.0156 Q242.8594,148.625 242.625,148.8906 Q242.3906,149.1563 242.0156,149.1563 Q241.6719,149.1563 241.4688,148.9531 Q241.2656,148.7656 241.1563,148.25 Q241.1094,147.8906 240.9219,147.7031 Q240.5938,147.3281 239.9844,147.1094 Q239.375,146.8906 238.75,146.8906 Q237.9844,146.8906 237.3438,147.2188 Q236.7188,147.5469 236.2188,148.2969 Q235.7344,149.0469 235.7344,150.0781 L235.7344,151.1719 Q235.7344,152.4063 236.625,153.2344 Q237.5156,154.0469 239.1094,154.0469 Q240.0469,154.0469 240.7031,153.7969 Q241.0938,153.6406 241.5156,153.2031 Q241.7813,152.9375 241.9219,152.8594 Q242.0781,152.7813 242.2813,152.7813 Q242.6094,152.7813 242.8594,153.0469 Q243.125,153.2969 243.125,153.6406 Q243.125,153.9844 242.7813,154.3906 Q242.2813,154.9688 241.4844,155.2969 Q240.4063,155.75 239.1094,155.75 Q237.5938,155.75 236.3906,155.125 Q235.4063,154.625 234.7188,153.5625 Q234.0313,152.4844 234.0313,151.2031 L234.0313,150.0469 Q234.0313,148.7188 234.6406,147.5781 Q235.2656,146.4219 236.3594,145.8125 Q237.4531,145.1875 238.6875,145.1875 Q239.4219,145.1875 240.0625,145.3594 Q240.7188,145.5156 241.2656,145.875 Z " fill="#000000"/><text fill="#000000" font-family="sans-serif" font-size="14" lengthAdjust="spacing" textLength="40" x="252.5" y="155.7969">Player</text><line style="stroke:#181818;stroke-width:0.5;" x1="224.5" x2="294.5" y1="166" y2="166"/><line style="stroke:#181818;stroke-width:0.5;" x1="224.5" x2="294.5" y1="174" y2="174"/></g><!--class Card--><g id="elem_Card"><rect codeLine="4" fill="#F1F1F1" height="48" id="Card" rx="2.5" ry="2.5" style="stroke:#181818;stroke-width:0.5;" width="63" x="228" y="261"/><ellipse cx="243" cy="277" fill="#C2C2C2" rx="11" ry="11" style="stroke:#181818;stroke-width:1.0;"/><path d="M245.7656,272.875 Q245.9219,272.6563 246.1094,272.5469 Q246.2969,272.4375 246.5156,272.4375 Q246.8906,272.4375 247.125,272.7031 Q247.3594,272.9531 247.3594,273.5625 L247.3594,275.0156 Q247.3594,275.625 247.125,275.8906 Q246.8906,276.1563 246.5156,276.1563 Q246.1719,276.1563 245.9688,275.9531 Q245.7656,275.7656 245.6563,275.25 Q245.6094,274.8906 245.4219,274.7031 Q245.0938,274.3281 244.4844,274.1094 Q243.875,273.8906 243.25,273.8906 Q242.4844,273.8906 241.8438,274.2188 Q241.2188,274.5469 240.7188,275.2969 Q240.2344,276.0469 240.2344,277.0781 L240.2344,278.1719 Q240.2344,279.4063 241.125,280.2344 Q242.0156,281.0469 243.6094,281.0469 Q244.5469,281.0469 245.2031,280.7969 Q245.5938,280.6406 246.0156,280.2031 Q246.2813,279.9375 246.4219,279.8594 Q246.5781,279.7813 246.7813,279.7813 Q247.1094,279.7813 247.3594,280.0469 Q247.625,280.2969 247.625,280.6406 Q247.625,280.9844 247.2813,281.3906 Q246.7813,281.9688 245.9844,282.2969 Q244.9063,282.75 243.6094,282.75 Q242.0938,282.75 240.8906,282.125 Q239.9063,281.625 239.2188,280.5625 Q238.5313,279.4844 238.5313,278.2031 L238.5313,277.0469 Q238.5313,275.7188 239.1406,274.5781 Q239.7656,273.4219 240.8594,272.8125 Q241.9531,272.1875 243.1875,272.1875 Q243.9219,272.1875 244.5625,272.3594 Q245.2188,272.5156 245.7656,272.875 Z " fill="#000000"/><text fill="#000000" font-family="sans-serif" font-size="14" lengthAdjust="spacing" textLength="31" x="257" y="282.7969">Card</text><line style="stroke:#181818;stroke-width:0.5;" x1="229" x2="290" y1="293" y2="293"/><line style="stroke:#181818;stroke-width:0.5;" x1="229" x2="290" y1="301" y2="301"/></g><!--class Deck--><g id="elem_Deck"><rect codeLine="5" fill="#F1F1F1" height="48" id="Deck" rx="2.5" ry="2.5" style="stroke:#181818;stroke-width:0.5;" width="64" x="408.5" y="134"/><ellipse cx="423.5" cy="150" fill="#C2C2C2" rx="11" ry="11" style="stroke:#181818;stroke-width:1.0;"/><path d="M426.2656,145.875 Q426.4219,145.6563 426.6094,145.5469 Q426.7969,145.4375 427.0156,145.4375 Q427.3906,145.4375 427.625,145.7031 Q427.8594,145.9531 427.8594,146.5625 L427.8594,148.0156 Q427.8594,148.625 427.625,148.8906 Q427.3906,149.1563 427.0156,149.1563 Q426.6719,149.1563 426.4688,148.9531 Q426.2656,148.7656 426.1563,148.25 Q426.1094,147.8906 425.9219,147.7031 Q425.5938,147.3281 424.9844,147.1094 Q424.375,146.8906 423.75,146.8906 Q422.9844,146.8906 422.3438,147.2188 Q421.7188,147.5469 421.2188,148.2969 Q420.7344,149.0469 420.7344,150.0781 L420.7344,151.1719 Q420.7344,152.4063 421.625,153.2344 Q422.5156,154.0469 424.1094,154.0469 Q425.0469,154.0469 425.7031,153.7969 Q426.0938,153.6406 426.5156,153.2031 Q426.7813,152.9375 426.9219,152.8594 Q427.0781,152.7813 427.2813,152.7813 Q427.6094,152.7813 427.8594,153.0469 Q428.125,153.2969 428.125,153.6406 Q428.125,153.9844 427.7813,154.3906 Q427.2813,154.9688 426.4844,155.2969 Q425.4063,155.75 424.1094,155.75 Q422.5938,155.75 421.3906,155.125 Q420.4063,154.625 419.7188,153.5625 Q419.0313,152.4844 419.0313,151.2031 L419.0313,150.0469 Q419.0313,148.7188 419.6406,147.5781 Q420.2656,146.4219 421.3594,145.8125 Q422.4531,145.1875 423.6875,145.1875 Q424.4219,145.1875 425.0625,145.3594 Q425.7188,145.5156 426.2656,145.875 Z " fill="#000000"/><text fill="#000000" font-family="sans-serif" font-size="14" lengthAdjust="spacing" textLength="32" x="437.5" y="155.7969">Deck</text><line style="stroke:#181818;stroke-width:0.5;" x1="409.5" x2="471.5" y1="166" y2="166"/><line style="stroke:#181818;stroke-width:0.5;" x1="409.5" x2="471.5" y1="174" y2="174"/></g><!--class DiscardPile--><g id="elem_DiscardPile"><rect codeLine="6" fill="#F1F1F1" height="48" id="DiscardPile" rx="2.5" ry="2.5" style="stroke:#181818;stroke-width:0.5;" width="103" x="7" y="134"/><ellipse cx="22" cy="150" fill="#C2C2C2" rx="11" ry="11" style="stroke:#181818;stroke-width:1.0;"/><path d="M24.7656,145.875 Q24.9219,145.6563 25.1094,145.5469 Q25.2969,145.4375 25.5156,145.4375 Q25.8906,145.4375 26.125,145.7031 Q26.3594,145.9531 26.3594,146.5625 L26.3594,148.0156 Q26.3594,148.625 26.125,148.8906 Q25.8906,149.1563 25.5156,149.1563 Q25.1719,149.1563 24.9688,148.9531 Q24.7656,148.7656 24.6563,148.25 Q24.6094,147.8906 24.4219,147.7031 Q24.0938,147.3281 23.4844,147.1094 Q22.875,146.8906 22.25,146.8906 Q21.4844,146.8906 20.8438,147.2188 Q20.2188,147.5469 19.7188,148.2969 Q19.2344,149.0469 19.2344,150.0781 L19.2344,151.1719 Q19.2344,152.4063 20.125,153.2344 Q21.0156,154.0469 22.6094,154.0469 Q23.5469,154.0469 24.2031,153.7969 Q24.5938,153.6406 25.0156,153.2031 Q25.2813,152.9375 25.4219,152.8594 Q25.5781,152.7813 25.7813,152.7813 Q26.1094,152.7813 26.3594,153.0469 Q26.625,153.2969 26.625,153.6406 Q26.625,153.9844 26.2813,154.3906 Q25.7813,154.9688 24.9844,155.2969 Q23.9063,155.75 22.6094,155.75 Q21.0938,155.75 19.8906,155.125 Q18.9063,154.625 18.2188,153.5625 Q17.5313,152.4844 17.5313,151.2031 L17.5313,150.0469 Q17.5313,148.7188 18.1406,147.5781 Q18.7656,146.4219 19.8594,145.8125 Q20.9531,145.1875 22.1875,145.1875 Q22.9219,145.1875 23.5625,145.3594 Q24.2188,145.5156 24.7656,145.875 Z " fill="#000000"/><text fill="#000000" font-family="sans-serif" font-size="14" lengthAdjust="spacing" textLength="71" x="36" y="155.7969">DiscardPile</text><line style="stroke:#181818;stroke-width:0.5;" x1="8" x2="109" y1="166" y2="166"/><line style="stroke:#181818;stroke-width:0.5;" x1="8" x2="109" y1="174" y2="174"/></g><!--link Game to Player--><g id="link_Game_Player"><path codeLine="8" d="M259.5,55.22 C259.5,77.67 259.5,111.5 259.5,133.91 " fill="none" id="Game-Player" style="stroke:#181818;stroke-width:1.0;"/><polygon fill="#000000" points="264.5,89.6455,261.5611,98.6906,267.4389,98.6906,264.5,89.6455" style="stroke:#000000;stroke-width:1.0;"/><text fill="#000000" font-family="sans-serif" font-size="13" lengthAdjust="spacing" textLength="31" x="273.5" y="100.0283">plays</text></g><!--link Game to Deck--><g id="link_Game_Deck"><path codeLine="9" d="M293.12,55.22 C326.04,77.95 375.84,112.35 408.28,134.75 " fill="none" id="Game-Deck" style="stroke:#181818;stroke-width:1.0;"/></g><!--link Game to DiscardPile--><g id="link_Game_DiscardPile"><path codeLine="10" d="M224.49,53.77 C188.38,76.23 132.31,111.1 95.49,134 " fill="none" id="Game-DiscardPile" style="stroke:#181818;stroke-width:1.0;"/></g><!--link Player to Card--><g id="link_Player_Card"><path codeLine="11" d="M259.5,182.22 C259.5,204.67 259.5,238.5 259.5,260.91 " fill="none" id="Player-Card" style="stroke:#181818;stroke-width:1.0;"/><polygon fill="#000000" points="264.5,226.6455,267.4389,217.6004,261.5611,217.6004,264.5,226.6455" style="stroke:#000000;stroke-width:1.0;"/><text fill="#000000" font-family="sans-serif" font-size="13" lengthAdjust="spacing" textLength="31" x="273.5" y="227.0283">holds</text></g><!--link Player to Deck--><g id="link_Player_Deck"><path codeLine="12" d="M295.69,158 C328.6,158 376.72,158 408.31,158 " fill="none" id="Player-Deck" style="stroke:#181818;stroke-width:1.0;stroke-dasharray:7.0,7.0;"/><polygon fill="#000000" points="323,145.6455,313.9549,142.7066,313.9549,148.5844,323,145.6455" style="stroke:#000000;stroke-width:1.0;"/><text fill="#000000" font-family="sans-serif" font-size="13" lengthAdjust="spacing" textLength="63" x="327" y="151.0283">draws from</text></g><!--link DiscardPile to Player--><g id="link_DiscardPile_Player"><path codeLine="13" d="M110,158 C145.48,158 191.74,158 223.35,158 " fill="none" id="DiscardPile-Player" style="stroke:#181818;stroke-width:1.0;stroke-dasharray:7.0,7.0;"/><polygon fill="#000000" points="127.25,145.6455,136.2951,148.5844,136.2951,142.7066,127.25,145.6455" style="stroke:#000000;stroke-width:1.0;"/><text fill="#000000" font-family="sans-serif" font-size="13" lengthAdjust="spacing" textLength="64" x="141.25" y="151.0283">discards to</text></g><!--link Deck to Card--><g id="link_Deck_Card"><path codeLine="14" d="M408.14,181.35 C375.09,204.17 324.11,239.38 291.28,262.06 " fill="none" id="Deck-Card" style="stroke:#181818;stroke-width:1.0;"/><polygon fill="#000000" points="370.6141,218.8041,361.5014,221.5261,364.8418,226.3625,370.6141,218.8041" style="stroke:#000000;stroke-width:1.0;"/><text fill="#000000" font-family="sans-serif" font-size="13" lengthAdjust="spacing" textLength="63" x="375.5" y="227.0283">drawn from</text></g><!--link DiscardPile to Card--><g id="link_DiscardPile_Card"><path codeLine="15" d="M91.32,182.06 C112.27,196.54 140.16,215.36 165.5,231 C185.91,243.59 209.41,256.84 227.81,266.94 " fill="none" id="DiscardPile-Card" style="stroke:#181818;stroke-width:1.0;"/><polygon fill="#000000" points="166.2541,219.0051,172.383,226.2774,175.4871,221.286,166.2541,219.0051" style="stroke:#000000;stroke-width:1.0;"/><text fill="#000000" font-family="sans-serif" font-size="13" lengthAdjust="spacing" textLength="71" x="179.5" y="227.0283">discarded to</text></g><!--SRC=[JOv13eCm30JlUOK_00-eK2-jr2jVi1BJH2G4nLHLLVNlTI10Rcllpjeykcd6X06-2Y34AMgROY1OqelKJodjaHaU6AZ8tkE7KXbkc4oHTzBZBXrhCNhdIQcCGjCK3YumYs3e3cC5Zw522o7RV4P86xrXkEv6czpJBkrQ8Av9-6OOvFigucd8YRCr1xU9OOcINEdpHcwPjfPErLmLsRPaSa7t1m00]--></g></svg>